<svg xmlns="http://www.w3.org/2000/svg" xmlns:xlink="http://www.w3.org/1999/xlink" viewBox="0 0 500 500"><defs><clipPath id="freepik--clip-path--inject-49"><polygon points="298.74 362.87 310.92 355.83 278.43 337.07 266.24 344.11 298.74 362.87" style="fill:none"></polygon></clipPath></defs><g id="freepik--Floor--inject-49"><ellipse id="freepik--floor--inject-49" cx="250.6" cy="358.11" rx="226.82" ry="124.04" style="fill:#f5f5f5"></ellipse></g><g id="freepik--Shadow--inject-49"><g id="freepik--shadow--inject-49"><polygon id="freepik--Roof--inject-49" points="446.95 353.67 245.93 237.32 44.9 353.66 245.93 469.73 446.95 353.67" style="fill:#e0e0e0"></polygon></g></g><g id="freepik--Building--inject-49"><g id="freepik--building--inject-49"><g id="freepik--Wall--inject-49"><polygon points="245.93 419.5 67.2 316.31 67.2 142.45 245.93 245.64 245.93 419.5" style="fill:#BA68C8"></polygon><polygon points="245.93 419.5 67.2 316.31 67.2 142.45 245.93 245.64 245.93 419.5" style="opacity:0.15"></polygon><polygon points="245.93 459.08 245.93 428.07 67.2 324.88 67.2 355.89 245.93 459.08" style="fill:#37474f"></polygon></g><g id="freepik--wall--inject-49"><polygon points="245.93 419.5 424.66 316.31 424.66 142.46 245.93 245.64 245.93 419.5" style="fill:#BA68C8"></polygon><polygon points="245.93 459.08 245.93 428.07 424.66 324.88 424.66 355.89 245.93 459.08" style="fill:#455a64"></polygon></g><g id="freepik--Cornice--inject-49"><polyline points="245.93 423.93 59.52 316.31 59.52 324.88 245.93 432.5 245.93 423.93" style="fill:#BA68C8"></polyline><polyline points="245.93 423.93 59.52 316.31 59.52 324.88 245.93 432.5 245.93 423.93" style="fill:#fff;opacity:0.4"></polyline><polygon points="432.33 316.31 432.33 324.88 245.93 432.5 245.93 423.93 432.33 316.31" style="fill:#BA68C8"></polygon><polygon points="432.33 316.31 432.33 324.88 245.93 432.5 245.93 423.93 432.33 316.31" style="fill:#fff;opacity:0.6000000000000001"></polygon><polygon points="424.66 311.88 424.66 316.31 245.93 419.5 63.36 314.09 59.52 316.31 245.93 423.93 432.33 316.31 424.66 311.88" style="fill:#BA68C8"></polygon><polygon points="424.66 311.88 424.66 316.31 245.93 419.5 63.36 314.09 59.52 316.31 245.93 423.93 432.33 316.31 424.66 311.88" style="fill:#fff;opacity:0.8"></polygon><polygon points="245.93 423.93 245.93 419.5 67.2 316.31 67.2 311.88 59.52 316.31 245.93 423.93" style="fill:#BA68C8"></polygon><polygon points="245.93 423.93 245.93 419.5 67.2 316.31 67.2 311.88 59.52 316.31 245.93 423.93" style="fill:#fff;opacity:0.6000000000000001"></polygon></g><g id="freepik--cornice--inject-49"><polyline points="245.93 250.07 59.52 142.45 59.52 156.78 245.93 264.41 245.93 250.07" style="fill:#BA68C8"></polyline><polyline points="245.93 250.07 59.52 142.45 59.52 156.78 245.93 264.41 245.93 250.07" style="fill:#fff;opacity:0.4"></polyline><polygon points="432.33 142.46 432.33 156.79 245.93 264.41 245.93 250.07 432.33 142.46" style="fill:#BA68C8"></polygon><polygon points="432.33 142.46 432.33 156.79 245.93 264.41 245.93 250.07 432.33 142.46" style="fill:#fff;opacity:0.6000000000000001"></polygon></g><g id="freepik--roof--inject-49"><polygon id="freepik--roof--inject-49" points="432.33 142.46 245.93 34.57 59.52 142.45 245.93 250.07 432.33 142.46" style="fill:#BA68C8"></polygon><g style="opacity:0.8"><polygon id="freepik--roof--inject-49" points="432.33 142.46 245.93 34.57 59.52 142.45 245.93 250.07 432.33 142.46" style="fill:#fff"></polygon></g><polygon points="245.93 48.13 245.93 56.99 401.64 146.88 409.31 142.46 245.93 48.13" style="fill:#BA68C8"></polygon><polygon points="245.93 48.13 245.93 56.99 401.64 146.88 409.31 142.46 245.93 48.13" style="opacity:0.15"></polygon><polygon points="245.93 48.13 82.55 142.45 90.22 146.88 245.93 56.99 245.93 48.13" style="fill:#BA68C8"></polygon><polygon points="401.64 146.88 245.93 56.99 90.22 146.88 245.93 236.78 401.64 146.88" style="fill:#455a64"></polygon><polygon points="409.31 142.46 245.93 48.13 235.9 62.78 248.48 70.05 214.24 89.81 243 106.42 242.93 106.45 271.94 123.2 306.24 103.39 391.6 152.68 409.31 142.46" style="opacity:0.1"></polygon><polygon points="253.03 57.36 274.7 69.88 244.36 87.39 222.69 74.88 253.03 57.36" style="fill:#fafafa"></polygon><polygon points="274.7 69.88 274.7 82.39 244.36 99.9 244.36 87.39 274.7 69.88" style="fill:#f0f0f0"></polygon><polygon points="222.69 74.88 222.69 87.39 244.36 99.9 244.36 87.39 222.69 74.88" style="fill:#e0e0e0"></polygon><path d="M260.15,65.76c3.94,2.27,3.94,6,0,8.23a15.73,15.73,0,0,1-14.25,0c-3.93-2.27-3.93-6,0-8.22A15.74,15.74,0,0,1,260.15,65.76Z" style="fill:#e0e0e0"></path><path d="M256.37,68.1c1.84,1,1.84,2.57,0,3.54a7.93,7.93,0,0,1-6.67,0c-1.84-1-1.84-2.56,0-3.54A8,8,0,0,1,256.37,68.1Z" style="fill:#fafafa"></path><path d="M233.32,99.29c.59,0,1.07-.36,1.07-.76V91.64l3.8-2.2a1.05,1.05,0,0,0,.39-1.45,1.07,1.07,0,0,0-1.46-.4l-4.33,2.51a1.07,1.07,0,0,0-.54.92v7.51C232.25,98.93,232.73,99.29,233.32,99.29Z" style="fill:#BA68C8"></path><path d="M227,95.66c.59,0,1.06-.35,1.06-.76V88l3.8-2.2A1.07,1.07,0,0,0,230.83,84l-4.34,2.51a1.06,1.06,0,0,0-.53.92V94.9C226,95.35,226.44,95.66,227,95.66Z" style="fill:#BA68C8"></path><polygon points="281.72 74 303.39 86.51 273.06 104.03 251.38 91.52 281.72 74" style="fill:#fafafa"></polygon><polygon points="303.39 86.51 303.39 99.03 273.06 116.54 273.06 104.03 303.39 86.51" style="fill:#f0f0f0"></polygon><polygon points="251.38 91.52 251.38 104.03 273.06 116.54 273.06 104.03 251.38 91.52" style="fill:#e0e0e0"></polygon><path d="M288.85,82.4c3.93,2.27,3.93,5.95,0,8.23a15.73,15.73,0,0,1-14.25,0c-3.93-2.27-3.93-6,0-8.22A15.76,15.76,0,0,1,288.85,82.4Z" style="fill:#e0e0e0"></path><path d="M285.06,84.74c1.84,1,1.84,2.57,0,3.54a7.93,7.93,0,0,1-6.67,0c-1.84-1-1.84-2.56,0-3.54A8,8,0,0,1,285.06,84.74Z" style="fill:#fafafa"></path><path d="M262,115.93c.59,0,1.07-.36,1.07-.76v-6.89l3.8-2.2a1.06,1.06,0,0,0,.39-1.46,1.07,1.07,0,0,0-1.46-.39l-4.33,2.51a1.06,1.06,0,0,0-.53.92v7.51C261,115.57,261.42,115.93,262,115.93Z" style="fill:#BA68C8"></path><path d="M255.72,112.3c.59,0,1.07-.35,1.07-.76v-6.89l3.8-2.2a1.07,1.07,0,0,0-1.07-1.85l-4.34,2.51a1.06,1.06,0,0,0-.53.92v7.51C254.65,112,255.13,112.3,255.72,112.3Z" style="fill:#BA68C8"></path></g><g id="freepik--Balcony--inject-49"><polygon id="freepik--shadow--inject-49" points="400.29 320.7 270.3 395.74 270.3 372.56 400.29 297.52 400.29 320.7" style="opacity:0.15"></polygon><g id="freepik--Door--inject-49"><g id="freepik--door--inject-49"><polygon points="365.87 221.83 365.87 317.08 308.33 350.3 308.31 255.06 365.87 221.83" style="fill:#BA68C8"></polygon><polygon points="365.87 221.83 365.87 317.08 308.33 350.3 308.31 255.06 365.87 221.83" style="opacity:0.25"></polygon><g style="opacity:0.15"><polygon points="365.87 221.83 361.31 224.47 361.31 314.03 365.87 317.08 365.87 221.83"></polygon></g><polygon points="361.31 314.03 367.8 318.19 308.31 352.54 308.33 344.62 361.31 314.03" style="fill:#BA68C8"></polygon><polygon points="361.31 314.03 367.8 318.19 308.31 352.54 308.33 344.62 361.31 314.03" style="fill:#fff;opacity:0.8"></polygon><polygon points="361.31 314.03 308.33 344.62 308.31 255.06 361.31 224.47 361.31 314.03" style="fill:#BA68C8"></polygon><polygon points="361.31 314.04 308.33 344.62 308.31 255.06 361.31 224.47 361.31 314.04" style="fill:#fff;opacity:0.9500000000000001"></polygon><polygon points="361.31 224.47 361.31 233.33 308.31 263.92 308.31 255.06 361.31 224.47" style="opacity:0.1"></polygon><polygon points="339.1 237.28 337.1 238.44 337.1 333.67 339.1 332.53 339.1 237.28" style="fill:#BA68C8"></polygon><g style="opacity:0.2"><polygon points="339.1 237.28 337.1 238.44 337.1 333.67 339.1 332.53 339.1 237.28"></polygon></g><polygon points="337.1 238.44 337.1 333.67 335.1 332.52 335.1 239.58 337.1 238.44" style="fill:#BA68C8"></polygon><g style="opacity:0.4"><polygon points="337.1 238.44 337.1 333.67 335.1 332.52 335.1 239.58 337.1 238.44"></polygon></g></g><g id="freepik--Casing--inject-49"><polygon points="365.87 317.08 367.8 318.19 367.8 220.71 365.87 221.83 365.87 317.08" style="fill:#BA68C8"></polygon><polygon points="365.87 317.08 367.8 318.19 367.8 220.71 365.87 221.83 365.87 317.08" style="fill:#fff;opacity:0.4"></polygon><polygon points="365.87 317.08 367.8 318.19 367.8 220.71 365.87 221.83 365.87 317.08" style="opacity:0.1"></polygon><polygon points="367.81 318.19 375.48 313.76 375.48 207.42 300.64 250.63 300.64 356.97 308.31 352.54 308.31 255.06 367.8 220.71 367.81 318.19" style="fill:#BA68C8"></polygon><polygon points="367.81 318.19 375.48 313.76 375.48 207.42 300.64 250.63 300.64 356.97 308.31 352.54 308.31 255.06 367.8 220.71 367.81 318.19" style="fill:#fff;opacity:0.7000000000000001"></polygon><polygon points="375.48 207.42 300.64 250.63 298.74 249.52 373.57 206.32 375.48 207.42" style="fill:#BA68C8"></polygon><polygon points="375.48 207.42 300.64 250.63 298.74 249.52 373.57 206.32 375.48 207.42" style="fill:#fff;opacity:0.85"></polygon><polygon points="300.64 356.97 300.64 250.63 298.74 249.52 298.74 355.87 300.64 356.97" style="fill:#BA68C8"></polygon><polyline points="298.74 249.52 298.74 355.87 300.64 356.97 300.64 250.63" style="fill:#fff;opacity:0.6000000000000001"></polyline></g></g><g id="freepik--floor--inject-49"><polygon points="270.3 372.29 400.29 297.24 449.03 325.38 319.05 400.43 270.3 372.29" style="fill:#fafafa"></polygon><polygon points="270.3 372.29 270.3 376.98 319.05 405.12 319.05 400.43 270.3 372.29" style="fill:#e0e0e0"></polygon><polygon points="319.05 400.43 449.03 325.38 449.03 330.08 319.05 405.12 319.05 400.43" style="fill:#f0f0f0"></polygon></g><g id="freepik--Railing--inject-49"><polygon points="444.97 285.81 397.45 258.36 397.44 292.94 444.97 320.4 444.97 285.81" style="opacity:0.2"></polygon><path d="M445.1,302.06l-47.75-27.6a.41.41,0,0,0-.41,0,1.29,1.29,0,0,0-.59,1,.45.45,0,0,0,.17.38l47.75,27.59Z" style="fill:#455a64"></path><path d="M445.1,284.69,397.35,257.1a.41.41,0,0,0-.41,0,1.28,1.28,0,0,0-.59,1,.42.42,0,0,0,.17.38l47.75,27.6Z" style="fill:#455a64"></path><path d="M445.1,319.36l-47.75-27.59a.41.41,0,0,0-.41,0,1.28,1.28,0,0,0-.59,1,.42.42,0,0,0,.17.38l47.75,27.6Z" style="fill:#455a64"></path></g><g id="freepik--Character--inject-49"><path id="freepik--shadow--inject-49" d="M367.28,318.51l30.49-17.6a1.61,1.61,0,0,1,1.51,0l27.24,15.65a.46.46,0,0,1,0,.88L396,335a1.69,1.69,0,0,1-1.52,0l-3.58-2-14-8.08-9.65-5.57C366.86,319.14,366.86,318.75,367.28,318.51Z" style="fill:#e0e0e0"></path><ellipse id="freepik--shadow--inject-49" cx="371.77" cy="335.01" rx="17.51" ry="10.11" style="fill:#e0e0e0"></ellipse><path d="M373.53,305.45h0a3.43,3.43,0,0,0,1.66,3.52l19.41,10.12.06,1.11.88.52-1.14.65L373,309Z" style="fill:#37474f"></path><path d="M393.8,326.31h0a3.82,3.82,0,0,0-1.7-3.74l-17.49-10.1a1.64,1.64,0,0,0-2.44,1.15h0l1.16-7h0a3.35,3.35,0,0,0,1.63,3.45l18.1,10.46a.87.87,0,0,0,1.36-.71l.09-1Z" style="fill:#BA68C8"></path><path d="M393.8,326.31h0a3.82,3.82,0,0,0-1.7-3.74l-17.49-10.1a1.64,1.64,0,0,0-2.44,1.15h0l1.16-7h0a3.35,3.35,0,0,0,1.63,3.45l18.1,10.46a.87.87,0,0,0,1.36-.71l.09-1Z" style="opacity:0.5"></path><path d="M393.42,278.53l5,2.87-21.15,13.37a5.65,5.65,0,0,0-2.55,3.83l-3.08,19.94a.34.34,0,0,1-.51.24h0c-.11-.07-.18-.19-.14-.68l1.76-21.19a5.47,5.47,0,0,1,2.08-3.59Z" style="fill:#BA68C8"></path><path d="M393.42,278.53l5,2.87-21.15,13.37a5.65,5.65,0,0,0-2.55,3.83l-3.08,19.94a.34.34,0,0,1-.51.24h0c-.11-.07-.18-.19-.14-.68l1.76-21.19a5.47,5.47,0,0,1,2.08-3.59Z" style="opacity:0.4"></path><path d="M390.35,285.07V281l-12,9.56c1.16,1.3,2.05,1.18,3.43.7S390.35,285.07,390.35,285.07Z" style="opacity:0.15"></path><path d="M418.15,308.94l-1.65-3.81h0l-.05-.11h0l-.07-.17.07.17a1.66,1.66,0,0,1-2.35,2.1l-.83-.48-1.11.64,2.22,1.28-18.29,10.56.49-2.92-.73,4.37,19.64-11.37,1.22.7Z" style="fill:#263238"></path><path d="M395.61,319.39l18.7-10.8a2.62,2.62,0,0,0,1.18-2v-1.1a2.6,2.6,0,0,0-1.18-2l-18.7-10.8a2.59,2.59,0,0,0-2.36,0l-18.7,10.8a2.6,2.6,0,0,0-1.18,2v1.12a2.6,2.6,0,0,0,1.18,2l18.7,10.79A2.59,2.59,0,0,0,395.61,319.39Z" style="fill:#BA68C8"></path><path d="M395.61,319.39l18.7-10.8a2.62,2.62,0,0,0,1.18-2v-1.1a2.6,2.6,0,0,0-1.18-2l-18.7-10.8a2.59,2.59,0,0,0-2.36,0l-18.7,10.8a2.6,2.6,0,0,0-1.18,2v1.12a2.6,2.6,0,0,0,1.18,2l18.7,10.79A2.59,2.59,0,0,0,395.61,319.39Z" style="fill:#fff;opacity:0.7000000000000001"></path><path d="M395.27,319.54a1.75,1.75,0,0,0,.34-.15l18.7-10.8a2.62,2.62,0,0,0,1.18-2v-1.1a2.69,2.69,0,0,0-1-1.89c.42.38.35.88-.22,1.21L395.7,315.5Z" style="fill:#BA68C8"></path><path d="M395.27,319.54a1.75,1.75,0,0,0,.34-.15l18.7-10.8a2.62,2.62,0,0,0,1.18-2v-1.1a2.69,2.69,0,0,0-1-1.89c.42.38.35.88-.22,1.21L395.7,315.5Z" style="fill:#fff;opacity:0.5"></path><path d="M395.27,319.54a1.75,1.75,0,0,0,.34-.15l18.7-10.8a2.62,2.62,0,0,0,1.18-2v-1.1a2.69,2.69,0,0,0-1-1.89c.42.38.35.88-.22,1.21L395.7,315.5Z" style="opacity:0.1"></path><path d="M373.37,305.44v1.12a2.6,2.6,0,0,0,1.18,2l18.7,10.79a2.61,2.61,0,0,0,2,.15l.43-4-.09.05a2.59,2.59,0,0,1-2.36,0l-18.7-10.79c-.57-.33-.64-.83-.22-1.21A2.65,2.65,0,0,0,373.37,305.44Z" style="fill:#BA68C8"></path><path d="M373.37,305.44v1.12a2.6,2.6,0,0,0,1.18,2l18.7,10.79a2.61,2.61,0,0,0,2,.15l.43-4-.09.05a2.59,2.59,0,0,1-2.36,0l-18.7-10.79c-.57-.33-.64-.83-.22-1.21A2.65,2.65,0,0,0,373.37,305.44Z" style="fill:#fff;opacity:0.5"></path><path d="M389,296.44l18.7,10.79a2.52,2.52,0,0,0,1.38.28l.21,0h0l.13,0h0l.19-.05a1.78,1.78,0,0,0,.4-.17l1-.55a3.29,3.29,0,0,0,1.42-2l2.85-15.87a2.64,2.64,0,0,0,0-.29v-.12a2.42,2.42,0,0,0-.13-.58,2,2,0,0,0-.63-.89l-.08-.06-.12-.08L395.61,276a2.65,2.65,0,0,0-2.36,0l-1,.56a2.4,2.4,0,0,0-.57.46.48.48,0,0,0-.09.11,3.1,3.1,0,0,0-.35.46l-.07.11a.41.41,0,0,1,0,.09l-.07.14a.84.84,0,0,0-.06.14.61.61,0,0,0,0,.12l0,.05a.49.49,0,0,0,0,.11l0,.13,0,.1L388,294.42A2.09,2.09,0,0,0,389,296.44Z" style="fill:#BA68C8"></path><path d="M389,296.44l18.7,10.79a2.52,2.52,0,0,0,1.38.28l.21,0h0l.13,0h0l.19-.05a1.78,1.78,0,0,0,.4-.17l1-.55a3.29,3.29,0,0,0,1.42-2l2.85-15.87a2.64,2.64,0,0,0,0-.29v-.12a2.42,2.42,0,0,0-.13-.58,2,2,0,0,0-.63-.89l-.08-.06-.12-.08L395.61,276a2.65,2.65,0,0,0-2.36,0l-1,.56a2.4,2.4,0,0,0-.57.46.48.48,0,0,0-.09.11,3.1,3.1,0,0,0-.35.46l-.07.11a.41.41,0,0,1,0,.09l-.07.14a.84.84,0,0,0-.06.14.61.61,0,0,0,0,.12l0,.05a.49.49,0,0,0,0,.11l0,.13,0,.1L388,294.42A2.09,2.09,0,0,0,389,296.44Z" style="fill:#fff;opacity:0.7000000000000001"></path><path d="M411.92,290.7l-2.84,15.87a.89.89,0,0,1-1.42.66L389,296.44a2.09,2.09,0,0,1-.94-2l2.84-15.88a.9.9,0,0,1,1.43-.66L411,288.68A2,2,0,0,1,411.92,290.7Z" style="fill:#BA68C8"></path><path d="M411.92,290.7l-2.84,15.87a.89.89,0,0,1-1.42.66L389,296.44a2.09,2.09,0,0,1-.94-2l2.84-15.88a.9.9,0,0,1,1.43-.66L411,288.68A2,2,0,0,1,411.92,290.7Z" style="fill:#fff;opacity:0.5"></path><path d="M408.14,307.43a3,3,0,0,0,.9.08l.21,0,.17,0h0l.19-.05a1.78,1.78,0,0,0,.4-.17l1-.55a3.29,3.29,0,0,0,1.42-2l2.85-15.87a2.64,2.64,0,0,0,0-.29v-.12a2.42,2.42,0,0,0-.13-.58l-3.34,1.9a1.87,1.87,0,0,1,.12,1l-2.84,15.87a.89.89,0,0,1-.94.83Z" style="fill:#BA68C8"></path><path d="M408.14,307.43a3,3,0,0,0,.9.08l.21,0,.17,0h0l.19-.05a1.78,1.78,0,0,0,.4-.17l1-.55a3.29,3.29,0,0,0,1.42-2l2.85-15.87a2.64,2.64,0,0,0,0-.29v-.12a2.42,2.42,0,0,0-.13-.58l-3.34,1.9a1.87,1.87,0,0,1,.12,1l-2.84,15.87a.89.89,0,0,1-.94.83Z" style="fill:#fff;opacity:0.5"></path><path d="M408.14,307.43a3,3,0,0,0,.9.08l.21,0,.17,0h0l.19-.05a1.78,1.78,0,0,0,.4-.17l1-.55a3.29,3.29,0,0,0,1.42-2l2.85-15.87a2.64,2.64,0,0,0,0-.29v-.12a2.42,2.42,0,0,0-.13-.58l-3.34,1.9a1.87,1.87,0,0,1,.12,1l-2.84,15.87a.89.89,0,0,1-.94.83Z" style="opacity:0.1"></path><path d="M400.72,308.62a5.85,5.85,0,0,0,3.63-3.59c.38-1.23.11-2,1.15-2.8a6.28,6.28,0,0,1,1.59-.63,4.77,4.77,0,0,0,3-3.23,2.64,2.64,0,0,0,0-1.55c.17-3.08.26-8.54.26-8.54s2.32-1.6,3.11-2h0L395.61,276a2.65,2.65,0,0,0-2.36,0l-1,.56a2.4,2.4,0,0,0-.57.46.48.48,0,0,0-.09.11,3.1,3.1,0,0,0-.35.46l-.07.11a.41.41,0,0,1,0,.09l-.07.14a.84.84,0,0,0-.06.14.61.61,0,0,0,0,.12l0,.05a.49.49,0,0,0,0,.11l0,.13,0,.1L388,294.42a2,2,0,0,0,.16,1.11l-13.63,7.87a2.6,2.6,0,0,0-1.18,2v1.12a2.6,2.6,0,0,0,1.18,2l12.65,7.3c.66-.85,1.37-2.33,1.86-2.75,2.64-1,4.08-1.54,6.06-2.34C396.8,310.12,399,309.3,400.72,308.62Z" style="opacity:0.1"></path><g id="freepik--character--inject-49"><path d="M381.74,321.26c.3.28.65.6.64,1a3.76,3.76,0,0,1-.87,2.18,7.36,7.36,0,0,0-1.2,3.65c-.07,1.11,0,3.91-1.3,5.1s-4.65,2-4.79-.07S377.59,323,377.59,323Z" style="fill:#263238"></path><path d="M380,322.7a30.61,30.61,0,0,0-1.07,4.46c-.23,1.66-.64,2.85-1.44,3.34s-2.06.5-1.66-.64,1.8-6.9,1.8-6.9Z" style="fill:#f28f8f"></path><path d="M388.42,294.3s-6,3.33-9.07,5.27-6.06,3.84-6.61,5.28-.17,5,.41,8.36,1.72,9.37,1.72,9.37l8.49-14.76,9.06-6.9Z" style="fill:#37474f"></path><path d="M389.67,301.41l-.53-.55s-5.09,2.91-6.94,4.17c-3.12,2.13-3.79,2.58-4.57,4.81s-3.11,11-3.11,11l5.86-12.36Z" style="fill:#263238"></path><path d="M374.77,333.22c.29.16.3.84.3,1.33s.41,1.12-.26,1.93-1.87,1-2.78,2.07-2.28,3.13-5,3.44-4.61-.73-5-1.56.09-1.53,1.86-2.34l2.42-1.11Z" style="fill:#263238"></path><path d="M372.44,327.55s-1.6,3.4-2.52,4.94a18.53,18.53,0,0,1-3.76,4.27c-.33.28-1.05.79-1.31,1a.51.51,0,0,0-.05.79c.49.62,2.89,1.08,4.38.26a34.23,34.23,0,0,0,4-3.28l1.21-.94a1.12,1.12,0,0,0,.42-1c0-.11,0-.23-.05-.38-.07-.81,1.4-3.87,1.4-3.87Z" style="fill:#ffa8a7"></path><path d="M403.77,296.91a11.4,11.4,0,0,1-1.12,6.76c-1.25,2.55-4.59,4.34-8.57,6-3.29,1.36-8.13,3.3-9.09,3.58s-1.14.82-1.25,2.57-1.1,4.51-3.52,7.8c-2.56,3.48-4.05,5.76-4.05,5.76a4.07,4.07,0,0,1-3.94-1.55s5.65-16.73,6.74-18.9,11.1-7.75,11.1-7.75a45.61,45.61,0,0,1-1.65-6.85Z" style="fill:#37474f"></path><path d="M388.1,298.21a5.41,5.41,0,0,0,1.57,3.2l-.79.52A4.6,4.6,0,0,1,388.1,298.21Z" style="fill:#263238"></path><path d="M374.11,277.89s4.75,5.09,6.92,7.22c2-2.08,4.77-5,6.49-6.83,2.59-2.82,4.56-3.34,6.76-3,0,0-1,1.61-1.78,2.89a32.63,32.63,0,0,0-1.78,5.54s-7.51,6-8.78,6.64c-1.77.88-2.12.4-3.38-.6a87.91,87.91,0,0,1-5.61-7.16,21.73,21.73,0,0,1-1.73-3.36Z" style="fill:#ffa8a7"></path><path d="M382.42,287.67a4.61,4.61,0,0,0-.85-3.12c-.18.19-.36.39-.54.56A6.86,6.86,0,0,1,382.42,287.67Z" style="fill:#f28f8f"></path><path d="M372.41,267.15a1.13,1.13,0,0,0-.4-1,3,3,0,0,1-1.27-2.08l-.87.32,1,2.47Z" style="fill:#BA68C8"></path><path d="M372.41,267.15a1.13,1.13,0,0,0-.4-1,3,3,0,0,1-1.27-2.08l-.87.32,1,2.47Z" style="fill:#fff;opacity:0.8"></path><path d="M372.41,267.15a4.68,4.68,0,0,1,2.77.41,25,25,0,0,0,7,2l-1,.39-9.38-2.12Z" style="fill:#BA68C8"></path><path d="M372.41,267.15a4.68,4.68,0,0,1,2.77.41,25,25,0,0,0,7,2l-1,.39-9.38-2.12Z" style="fill:#fff;opacity:0.8"></path><polygon points="382.15 269.56 383.73 281.03 382.69 281.42 381.11 269.95 382.15 269.56" style="fill:#BA68C8"></polygon><polygon points="382.15 269.56 383.73 281.03 382.69 281.42 381.11 269.95 382.15 269.56" style="fill:#fff;opacity:0.8"></polygon><polygon points="382.15 269.56 383.73 281.03 382.69 281.42 381.11 269.95 382.15 269.56" style="opacity:0.1"></polygon><g style="opacity:0.1"><path d="M370.64,264.69a1.87,1.87,0,0,0,.29.68,5.33,5.33,0,0,0,.46.58,4.68,4.68,0,0,1,.45.57,1.56,1.56,0,0,1,.14.33.79.79,0,0,1,0,.34l.11,0a.77.77,0,0,0,0-.4,1.5,1.5,0,0,0-.16-.34,3.87,3.87,0,0,0-.49-.57c-.16-.18-.33-.36-.48-.56A1.91,1.91,0,0,1,370.64,264.69Z"></path><path d="M370.69,265.33a1.72,1.72,0,0,0,.23.42l.27.4a2.13,2.13,0,0,1,.23.42,1.11,1.11,0,0,1,.08.44h.11a1,1,0,0,0-.11-.49,2.85,2.85,0,0,0-.26-.41l-.3-.38A2.14,2.14,0,0,1,370.69,265.33Z"></path><path d="M378.49,269a15.64,15.64,0,0,1-1.51-.49c-.49-.18-1-.4-1.47-.6a7.21,7.21,0,0,0-1.52-.46,5.17,5.17,0,0,0-.79-.1,2.67,2.67,0,0,0-.4,0,1,1,0,0,0-.41.12l.07.1a1,1,0,0,1,.35-.11l.39,0a5.18,5.18,0,0,1,.78.09,7.4,7.4,0,0,1,1.51.43c.49.19,1,.39,1.48.57A15.68,15.68,0,0,0,378.49,269Z"></path><path d="M376,268.57c-.29-.09-.57-.19-.85-.3l-.85-.29a5.36,5.36,0,0,0-.88-.21,2.59,2.59,0,0,0-.92,0l0,.11a2.54,2.54,0,0,1,.87,0,6.51,6.51,0,0,1,.88.17c.29.08.58.17.86.27S375.7,268.49,376,268.57Z"></path></g><polygon points="369.96 263.89 371.08 266.81 372.77 279.1 372.25 279.3 371.23 275.77 369.44 264.08 369.96 263.89" style="fill:#455a64"></polygon><path d="M372,268.16l-1.4-1.16,1.69,12.3a1.47,1.47,0,0,0,1.41,1.15Z" style="fill:#263238"></path><polygon points="370.56 267 369.44 264.08 371.23 275.77 372.25 279.3 370.56 267" style="fill:#37474f"></polygon><polygon points="372.48 267.97 381.73 270.12 383.42 282.41 382.9 282.61 373.66 280.45 371.96 268.16 372.48 267.97" style="fill:#455a64"></polygon><polygon points="381.21 270.31 382.9 282.61 373.66 280.45 371.96 268.16 381.21 270.31" style="fill:#37474f"></polygon><polygon points="381.73 270.12 381.21 270.31 382.9 282.61 383.42 282.41 381.73 270.12" style="fill:#263238"></polygon><path d="M371.13,266.79a1.52,1.52,0,0,1,1.28.36c.39.32.45.67.13.79l-.06,0c-.45,0-1.68-.88-1.4-1.16Z" style="fill:#BA68C8"></path><path d="M371.08,266.81c0,.46.54.84,1.4,1.16l-.52.19a1.9,1.9,0,0,1-1.4-1.16Z" style="fill:#455a64"></path><path d="M371.62,280.05c-1.29-2.11-1-5.15-.24-6.13.48-.65,3,.26,3.13,2.81s.28,3.33,1.13,4.18Z" style="fill:#ffa8a7"></path><path d="M401.68,276.13l2.54.43s-1.69,2.21-1.12,6.27c.41,2.87,1.06,3.09,2.55,3.86.43,3.64-1.81,12.7-1.81,12.7s-2.54,2.05-8.3.95a12.71,12.71,0,0,1-7.92-5.59l3.23-3.34.63-3s-3.55-2.17-2.85-5.52,5.65-7.61,5.65-7.61h2.18Z" style="fill:#fafafa"></path><path d="M401.63,294.3l-8.3-1.35s-4.16-1-3.66.28,2.13,2.11,4.14,2.38c1.1.15,4.9,2.53,8.11,4.65a6.06,6.06,0,0,0,1.92-.87s2.24-9.06,1.81-12.7c-1.3-.67-2-.93-2.38-2.92h0A63.89,63.89,0,0,1,401.63,294.3Z" style="fill:#e0e0e0"></path><path d="M400.92,274.66c.61-1.39,1.66-2.05,2.69-3.32,2-2.5,3-6.15,1.22-7.65a3.43,3.43,0,0,0-.4-2.73c-.82-1.25-1.78-1.34-2.67-1.87a10.17,10.17,0,0,1-1.73-1.42,10.33,10.33,0,0,0-1.38-1.18,2.33,2.33,0,0,0-2.38-.11c-1.38.67-1.18,1.74-1.18,1.74a3,3,0,0,0-2.75-.66c-1.95.29-3,2.71-1.58,4.11a2.8,2.8,0,0,0-.95,2.9c.5,1.8,3.07,2.09,4.26,1.06Z" style="fill:#263238"></path><path d="M393.89,262.11c-.83.43-1.92,2.39-2.05,6.61-.11,3.58,1,4.52,1.56,4.81a6.29,6.29,0,0,0,2.8.07l-.07,1.79a2.93,2.93,0,0,0-.63,1.79c.05,1,2.12,1.52,3.62.7s1.73-1.7,1.73-1.7l.24-5s.61.66,1.75-.23c.94-.74,1.31-2.05.65-2.79a1.56,1.56,0,0,0-2.51.36s-.38-1.59-3.07-2.6A6.46,6.46,0,0,1,393.89,262.11Z" style="fill:#ffa8a7"></path><path d="M393.73,261.63l-.12.11a2.33,2.33,0,0,0-.27.35,2.37,2.37,0,0,0-.32.81,2.15,2.15,0,0,0,.25,1.51,1.7,1.7,0,0,0,1.1.88.89.89,0,0,0,.7-.08.41.41,0,0,0,.18-.3.26.26,0,0,0-.11-.23.19.19,0,0,1-.06.2.33.33,0,0,1-.21.07.61.61,0,0,1-.43-.24,1.79,1.79,0,0,1,.67-2.46s0-.16,0-.18a.76.76,0,0,0-.16-.34,1.06,1.06,0,0,0-1-.17A.61.61,0,0,0,393.73,261.63Z" style="fill:#263238"></path><path d="M396.09,267.89a.45.45,0,1,0,.5-.42A.47.47,0,0,0,396.09,267.89Z" style="fill:#263238"></path><path d="M396.24,271l-1.17.31a.6.6,0,0,0,.73.45A.63.63,0,0,0,396.24,271Z" style="fill:#f28f8f"></path><path d="M392.35,266.37l1.1-.17a.54.54,0,0,0-.61-.47A.59.59,0,0,0,392.35,266.37Z" style="fill:#263238"></path><path d="M396.35,266.5l1,.5a.53.53,0,0,0-.22-.74A.58.58,0,0,0,396.35,266.5Z" style="fill:#263238"></path><path d="M392.51,267.6a.46.46,0,0,0,.4.52.47.47,0,0,0,.5-.42.46.46,0,0,0-.4-.51A.46.46,0,0,0,392.51,267.6Z" style="fill:#263238"></path><polygon points="394.75 267.51 394.62 270.44 393.22 269.92 394.75 267.51" style="fill:#f28f8f"></polygon><path d="M396.2,273.6c1.16-.09,3.56-.64,4-1.56a2.47,2.47,0,0,1-.9,1.15,12.16,12.16,0,0,1-3.11,1.12Z" style="fill:#f28f8f"></path></g><path d="M421.55,315.05l-6.06-17.37h-2.22l3.71,8.75a2.49,2.49,0,0,1-1.21,2.6L398.34,319.1a1.37,1.37,0,0,1-2-1.41l-1.34,7.9a4.81,4.81,0,0,1,2.3-3.32l19.38-11.19a2,2,0,0,1,2.45.38l1.65,3.9a.39.39,0,0,0,.18.2A.42.42,0,0,0,421.55,315.05Z" style="fill:#BA68C8"></path><path d="M421.55,315.05l-6.06-17.37h-2.22l3.71,8.75a2.49,2.49,0,0,1-1.21,2.6L398.34,319.1a1.37,1.37,0,0,1-2-1.41l-1.34,7.9a4.81,4.81,0,0,1,2.3-3.32l19.38-11.19a2,2,0,0,1,2.45.38l1.65,3.9a.39.39,0,0,0,.18.2A.42.42,0,0,0,421.55,315.05Z" style="opacity:0.6000000000000001"></path><path d="M414.52,292.85,397.45,306.4a5.64,5.64,0,0,0-2.11,3.94l-2,21a.37.37,0,0,0,.17.33h0a.35.35,0,0,0,.52-.25l3.34-19.72a5.63,5.63,0,0,1,2.54-3.83l14.57-9.21a4.71,4.71,0,0,0,.41-7.67Z" style="fill:#BA68C8"></path><path d="M414.52,292.85,397.45,306.4a5.64,5.64,0,0,0-2.11,3.94l-2,21a.37.37,0,0,0,.17.33h0a.35.35,0,0,0,.52-.25l3.34-19.72a5.63,5.63,0,0,1,2.54-3.83l14.57-9.21a4.71,4.71,0,0,0,.41-7.67Z" style="opacity:0.4"></path><path d="M407.57,300.73c1.44-.46,1.44-2,1.28-3.37l-.09.06-4.4,3.49A9.22,9.22,0,0,0,407.57,300.73Z" style="opacity:0.15"></path><g id="freepik--glass-of-wine--inject-49"><path d="M391.19,290.29a.3.3,0,0,0-.3.3l0,6.63a.62.62,0,0,1-.53.61c-.65.1-1.11.31-1.1.62s.86.78,1.93.77,1.92-.36,1.92-.79-.45-.52-1.09-.61a.61.61,0,0,1-.54-.6l0-6.63A.29.29,0,0,0,391.19,290.29Z" style="fill:#BA68C8"></path><path d="M391.19,290.29a.3.3,0,0,0-.3.3l0,6.63a.62.62,0,0,1-.53.61c-.65.1-1.11.31-1.1.62s.86.78,1.93.77,1.92-.36,1.92-.79-.45-.52-1.09-.61a.61.61,0,0,1-.54-.6l0-6.63A.29.29,0,0,0,391.19,290.29Z" style="opacity:0.2"></path><path d="M393.56,283.63c-.17-.51-1.1-.91-2.34-.91s-2.16.37-2.33.92a24.66,24.66,0,0,0-.85,5.1,3.19,3.19,0,0,0,6.36,0A24.73,24.73,0,0,0,393.56,283.63Z" style="fill:#BA68C8"></path><path d="M393.56,283.63c-.17-.51-1.1-.91-2.34-.91s-2.16.37-2.33.92a24.66,24.66,0,0,0-.85,5.1,3.19,3.19,0,0,0,6.36,0A24.73,24.73,0,0,0,393.56,283.63Z" style="opacity:0.1"></path><path d="M393.82,286.41a.19.19,0,0,0,0-.08c-.09-.55-1.21-1-2.58-1s-2.51.44-2.58,1c0,0,0,0,0,.05-.07.4-.11,2-.11,2.35a2.72,2.72,0,0,0,5.42,0C393.93,288.39,393.89,286.81,393.82,286.41Z" style="fill:#37474f"></path><path d="M393.81,286.4c0,.58-1.16,1.05-2.59,1.05s-2.59-.47-2.59-1.05,1.16-1.06,2.59-1.06S393.81,285.81,393.81,286.4Z" style="fill:#455a64"></path><path d="M393.33,283.77c0,.48-.94.86-2.11.86s-2.11-.38-2.11-.86.94-.86,2.11-.86S393.33,283.29,393.33,283.77Z" style="opacity:0.15"></path><path d="M409.05,297.65c.21-1.58.34-4,.43-6.82.06-2.06.18-3.95.19-6.7,0-5.59-1.42-7.54-5.45-7.57-2.76,4.43-.39,9.66-.39,9.66v7.72s-6.59-2.55-7.43-3-1.26-3.07-2-3a3.26,3.26,0,0,1-.47,2.36s-.34.68-2.62.79c-1.73.08-3.19-1.86-3.16-.2a4.26,4.26,0,0,0,1.51,2.86c1,.67,4.64.47,5.62.81,0,0,5.14,2.95,8.25,4.69C406,300.67,408.62,300.89,409.05,297.65Z" style="fill:#ffa8a7"></path><path d="M403.84,293.05h0v.89a6,6,0,0,1,3.16,2.48A4.43,4.43,0,0,0,403.84,293.05Z" style="fill:#f28f8f"></path></g></g><g id="freepik--Table--inject-49"><path id="freepik--shadow--inject-49" d="M326.1,349.64c-9.57,5.52-9.57,14.49,0,20s25.1,5.53,34.67,0,9.58-14.49,0-20S335.68,344.11,326.1,349.64Z" style="fill:#e0e0e0"></path><g id="freepik--table--inject-49"><path d="M321.74,349.4a.83.83,0,0,1,.5-.69,2.63,2.63,0,0,1,2.41,0,.84.84,0,0,1,.51.69l-.51,13.89h0a.59.59,0,0,1-.35.48,1.91,1.91,0,0,1-1.71,0,.59.59,0,0,1-.35-.48h0Z" style="fill:#455a64"></path><path d="M324.65,348.71a2.63,2.63,0,0,0-2.41,0,.83.83,0,0,0-.5.69l.21,4.23a17.88,17.88,0,0,0,2.87,2.38l.34-6.61A.84.84,0,0,0,324.65,348.71Z" style="fill:#263238"></path><path d="M364.91,349.4a.85.85,0,0,0-.5-.69,2.65,2.65,0,0,0-2.42,0,.83.83,0,0,0-.5.69l.5,13.89h0a.61.61,0,0,0,.35.48,1.91,1.91,0,0,0,1.71,0,.59.59,0,0,0,.35-.48h0Z" style="fill:#455a64"></path><path d="M364.41,348.71a2.65,2.65,0,0,0-2.42,0,.83.83,0,0,0-.5.69l.34,6.77a17.82,17.82,0,0,0,2.85-2.29l.23-4.48A.85.85,0,0,0,364.41,348.71Z" style="fill:#263238"></path><path d="M345.15,357a.86.86,0,0,0-.5-.7,2.71,2.71,0,0,0-2.42,0,.86.86,0,0,0-.5.7l.5,13.88h0a.6.6,0,0,0,.35.48,1.85,1.85,0,0,0,1.71,0,.61.61,0,0,0,.36-.48h0Z" style="fill:#455a64"></path><path d="M345,360.93l.2-4a.86.86,0,0,0-.5-.7,2.71,2.71,0,0,0-2.42,0,.86.86,0,0,0-.5.7l.2,4C342.93,361,343.94,361,345,360.93Z" style="fill:#263238"></path><path d="M368,343.22h0c0-3.62-2.37-7.24-7.16-10-9.57-5.52-25.09-5.52-34.67,0-4.78,2.77-7.16,6.39-7.16,10h0v1.95h0c.06,3.57,2.46,7.14,7.18,9.87,9.58,5.52,25.1,5.52,34.67,0,4.73-2.73,7.13-6.3,7.19-9.87h0Z" style="fill:#BA68C8"></path><path d="M326.1,333.21c-9.57,5.53-9.57,14.49,0,20s25.1,5.53,34.67,0,9.58-14.49,0-20S335.68,327.69,326.1,333.21Z" style="fill:#BA68C8"></path><g style="opacity:0.6000000000000001"><path d="M326.1,333.21c-9.57,5.53-9.57,14.49,0,20s25.1,5.53,34.67,0,9.58-14.49,0-20S335.68,327.69,326.1,333.21Z" style="fill:#fff"></path></g></g><g id="freepik--Bookv--inject-49"><polygon points="345.98 347.48 336.98 352.65 324.48 345.43 333.48 340.26 345.98 347.48" style="fill:#455a64"></polygon><path d="M336.89,352.32l8.74-5.05a3,3,0,0,1,0-1.9l-8.69,5A7.26,7.26,0,0,0,336.89,352.32Z" style="fill:#f5f5f5"></path><path d="M337.35,349.78a1.57,1.57,0,0,0-.7,1.21v1.42c0,.45.32.63.7.41l8.63-5v-.35l-8.53,4.91c-.23.13-.42,0-.42-.25v-1.31a.9.9,0,0,1,.42-.73l8.52-4.91v-.4Z" style="fill:#263238"></path><path d="M346,344.79l-12.5-7.22-8.63,5a1.54,1.54,0,0,0-.7,1.21v1.42a.52.52,0,0,0,.2.46l12.51,7.22a.5.5,0,0,1-.21-.46V351a1.54,1.54,0,0,1,.7-1.21Z" style="fill:#455a64"></path><path d="M336.86,350.3a1.42,1.42,0,0,0-.21.69v1.42a.5.5,0,0,0,.21.46l-12.51-7.22a.52.52,0,0,1-.2-.46v-1.42a1.51,1.51,0,0,1,.2-.69Z" style="fill:#37474f"></path></g><g id="freepik--Pot--inject-49"><g style="opacity:0.05"><path d="M354.44,336.22c2.15,1.24,2.15,3.25,0,4.49a8.58,8.58,0,0,1-7.77,0c-2.15-1.24-2.15-3.25,0-4.49A8.58,8.58,0,0,1,354.44,336.22Z"></path></g><path d="M347.14,338.74c-1.87-1.91-3-6.67-1.15-8.19h9.28c1.82,1.52.73,6.28-1.14,8.19a.12.12,0,0,0-.05.05l-.07.06-.17.15,0,0-.14.1-.24.16a6.14,6.14,0,0,1-5.57,0h0l-.25-.16-.13-.1a.1.1,0,0,1-.05,0l-.17-.15a.46.46,0,0,1-.07-.07Z" style="fill:#ebebeb"></path><path d="M354.47,329.94c2.11,1.23,2.11,3.21,0,4.43a8.49,8.49,0,0,1-7.67,0c-2.12-1.22-2.12-3.2,0-4.43A8.49,8.49,0,0,1,354.47,329.94Z" style="fill:#fafafa"></path><path d="M353,330.81c1.29.74,1.29,1.95,0,2.69a5.11,5.11,0,0,1-4.66,0c-1.29-.74-1.29-1.95,0-2.69A5.17,5.17,0,0,1,353,330.81Z" style="fill:#ebebeb"></path><path d="M348.3,332.09a5.11,5.11,0,0,1,4.66,0,2.09,2.09,0,0,1,.78.71,2.16,2.16,0,0,1-.78.7,5.11,5.11,0,0,1-4.66,0,2.12,2.12,0,0,1-.77-.7A2.06,2.06,0,0,1,348.3,332.09Z" style="fill:#e0e0e0"></path><path d="M352.68,332.8a10.66,10.66,0,0,0,1.69-2.25c.78-1.38.92-3.22.52-3.45s-2.05,1.61-2.05,1.61a9.64,9.64,0,0,0,.18-2.35,4.24,4.24,0,0,0-.72-2.57c-.35-.22-1.14,1.33-1.48,2.45s-.54,2-.54,2a17.83,17.83,0,0,0-.6-2.58c-.41-1.16-.78-1.43-1.07-1.31s-.48.66-.56,2.21a15.11,15.11,0,0,0,.07,2.22s-.58-.64-1.22-1.25-1-.77-1.21-.64-.26,1.18.84,3.15a10.89,10.89,0,0,0,2.06,2.72A4.74,4.74,0,0,0,352.68,332.8Z" style="fill:#BA68C8"></path><g style="opacity:0.30000000000000004"><path d="M352.68,332.8a10.66,10.66,0,0,0,1.69-2.25c.78-1.38.92-3.22.52-3.45s-2.05,1.61-2.05,1.61a9.64,9.64,0,0,0,.18-2.35,4.24,4.24,0,0,0-.72-2.57c-.35-.22-1.14,1.33-1.48,2.45s-.54,2-.54,2a17.83,17.83,0,0,0-.6-2.58c-.41-1.16-.78-1.43-1.07-1.31s-.48.66-.56,2.21a15.11,15.11,0,0,0,.07,2.22s-.58-.64-1.22-1.25-1-.77-1.21-.64-.26,1.18.84,3.15a10.89,10.89,0,0,0,2.06,2.72A4.74,4.74,0,0,0,352.68,332.8Z"></path></g></g></g><g id="freepik--railing--inject-49"><polygon points="319.04 358.52 271.52 331.06 271.52 365.65 319.04 393.1 319.04 358.52" style="opacity:0.2"></polygon><path d="M319.05,374.83,271.3,347.24a.41.41,0,0,0-.41,0,1.28,1.28,0,0,0-.59,1,.42.42,0,0,0,.17.38l47.75,27.6Z" style="fill:#455a64"></path><path d="M319.05,357.47,271.3,329.88a.37.37,0,0,0-.41,0,1.27,1.27,0,0,0-.59,1,.42.42,0,0,0,.17.38l47.75,27.59Z" style="fill:#455a64"></path><path d="M319.05,392.14,271.3,364.55a.39.39,0,0,0-.41,0,1.27,1.27,0,0,0-.59,1,.42.42,0,0,0,.17.38l47.75,27.59Z" style="fill:#455a64"></path><polygon points="319.04 358.52 444.97 285.81 444.97 320.4 319.04 393.1 319.04 358.52" style="opacity:0.2"></polygon><path d="M446.73,284.77v40.11a.85.85,0,0,1-.52.71,2.73,2.73,0,0,1-2.49,0,.85.85,0,0,1-.51-.71V284.77Z" style="fill:#37474f"></path><path d="M446.21,284.06a.75.75,0,0,1,0,1.43,2.73,2.73,0,0,1-2.49,0,.76.76,0,0,1,0-1.43A2.73,2.73,0,0,1,446.21,284.06Z" style="fill:#455a64"></path><path d="M447,282.71a2.07,2.07,0,1,1-2.07-2.07A2.07,2.07,0,0,1,447,282.71Z" style="fill:#37474f"></path><path d="M384.59,337l59.24-34.23a.41.41,0,0,1,.41,0,1.31,1.31,0,0,1,.59,1,.43.43,0,0,1-.18.38l-59.23,34.22Z" style="fill:#455a64"></path><path d="M384.59,354.31l59.24-34.22a.41.41,0,0,1,.41,0,1.31,1.31,0,0,1,.59,1,.4.4,0,0,1-.18.38l-59.23,34.23Z" style="fill:#455a64"></path><path d="M385.85,320.53v39.14a.52.52,0,0,1-.32.44,1.65,1.65,0,0,1-1.53,0,.54.54,0,0,1-.32-.44V320.53Z" style="fill:#37474f"></path><path d="M385.53,320.09c.43.25.43.64,0,.89a1.72,1.72,0,0,1-1.53,0,.47.47,0,0,1,0-.89A1.72,1.72,0,0,1,385.53,320.09Z" style="fill:#455a64"></path><path d="M319,357.53l124.79-72a.37.37,0,0,1,.41,0,1.3,1.3,0,0,1,.59,1,.4.4,0,0,1-.18.38L319.87,359Z" style="fill:#455a64"></path><path d="M319,374.83l64.85-37.42a.41.41,0,0,1,.41,0,1.28,1.28,0,0,1,.59,1,.42.42,0,0,1-.17.38l-64.85,37.43Z" style="fill:#455a64"></path><path d="M319,392.14l64.85-37.42a.39.39,0,0,1,.41,0,1.27,1.27,0,0,1,.59,1,.42.42,0,0,1-.17.38l-64.85,37.42Z" style="fill:#455a64"></path><path d="M320.8,357.53v39.54a.88.88,0,0,1-.51.72,2.8,2.8,0,0,1-2.49,0,.88.88,0,0,1-.51-.72V357.53Z" style="fill:#37474f"></path><path d="M320.29,356.81a.75.75,0,0,1,0,1.43,2.73,2.73,0,0,1-2.49,0,.75.75,0,0,1,0-1.43A2.73,2.73,0,0,1,320.29,356.81Z" style="fill:#455a64"></path><path d="M321.11,355.46a2.07,2.07,0,1,1-2.06-2.07A2.07,2.07,0,0,1,321.11,355.46Z" style="fill:#37474f"></path></g><g id="freepik--pot--inject-49"><polygon points="264.24 342.95 266.24 355.87 298.74 374.63 298.74 362.87 264.24 342.95" style="fill:#BA68C8"></polygon><polygon points="264.24 342.95 266.24 355.87 298.74 374.63 298.74 362.87 264.24 342.95" style="opacity:0.45"></polygon><polygon points="312.92 354.68 310.92 367.6 298.74 374.63 298.74 362.87 312.92 354.68" style="fill:#BA68C8"></polygon><polygon points="312.92 354.68 310.92 367.6 298.74 374.63 298.74 362.87 312.92 354.68" style="opacity:0.35000000000000003"></polygon><polygon id="freepik--shadow--inject-49" points="264.82 346.72 265.33 349.99 298.74 369.28 311.83 361.72 312.34 358.44 309.37 356.73 298.74 362.87 267.79 345 264.82 346.72" style="opacity:0.1"></polygon><polygon points="314.92 355.83 278.43 334.76 262.24 344.11 262.24 346.42 298.74 367.49 314.92 358.14 314.92 355.83" style="fill:#BA68C8"></polygon><polygon points="314.92 355.83 278.43 334.76 262.24 344.11 262.24 346.42 298.74 367.49 314.92 358.14 314.92 355.83" style="opacity:0.4"></polygon><polygon points="262.24 344.11 278.43 334.76 314.92 355.83 298.74 365.18 262.24 344.11" style="fill:#BA68C8"></polygon><polygon points="262.24 344.11 278.43 334.76 314.92 355.83 298.74 365.18 262.24 344.11" style="opacity:0.2"></polygon><polygon points="278.43 337.07 266.24 344.11 298.74 362.87 310.92 355.83 278.43 337.07" style="fill:#455a64"></polygon><polygon points="298.74 365.18 298.74 367.49 314.92 358.14 314.92 355.83 298.74 365.18" style="fill:#BA68C8"></polygon><polygon points="298.74 365.18 298.74 367.49 314.92 358.14 314.92 355.83 298.74 365.18" style="opacity:0.30000000000000004"></polygon><polygon points="278.43 337.07 278.43 351.14 266.24 344.11 278.43 337.07" style="fill:#37474f"></polygon><polygon points="268.3 345.3 278.42 339.46 308.86 357.02 298.74 362.87 268.3 345.3" style="fill:#b16668"></polygon><g id="freepik--Flowers--inject-49"><path d="M271.29,344c.38-1.89-.75-2.71-3.35-3.06a3.38,3.38,0,0,0,.33,2.28A2.36,2.36,0,0,0,271.29,344Z" style="fill:#BA68C8"></path><path d="M271.29,344c.38-1.89-.75-2.71-3.35-3.06a3.38,3.38,0,0,0,.33,2.28A2.36,2.36,0,0,0,271.29,344Z" style="opacity:0.30000000000000004"></path><path d="M268.4,341.32c.69.48,2.43,1.58,2.89,2.68l.07-.42S271.07,342.6,268.4,341.32Z" style="opacity:0.2"></path><path d="M270.83,344.26c-1.53-1.17-2.76-.49-4.2,1.7a3.44,3.44,0,0,0,2.21.68A2.35,2.35,0,0,0,270.83,344.26Z" style="fill:#BA68C8"></path><path d="M270.83,344.26c-1.53-1.17-2.76-.49-4.2,1.7a3.44,3.44,0,0,0,2.21.68A2.35,2.35,0,0,0,270.83,344.26Z" style="opacity:0.1"></path><path d="M267.17,345.71c.73-.42,2.48-1.52,3.66-1.45l-.34-.25S269.48,343.85,267.17,345.71Z" style="opacity:0.2"></path><path d="M284.76,342.06c-.39-1.89.75-2.71,3.35-3.06a3.41,3.41,0,0,1-.34,2.28A2.35,2.35,0,0,1,284.76,342.06Z" style="fill:#BA68C8"></path><path d="M284.76,342.06c-.39-1.89.75-2.71,3.35-3.06a3.41,3.41,0,0,1-.34,2.28A2.35,2.35,0,0,1,284.76,342.06Z" style="opacity:0.30000000000000004"></path><path d="M287.65,339.38c-.69.48-2.44,1.58-2.89,2.68l-.07-.42S285,340.66,287.65,339.38Z" style="opacity:0.2"></path><path d="M285.21,342.32c1.54-1.17,2.77-.49,4.21,1.7a3.4,3.4,0,0,1-2.21.68A2.36,2.36,0,0,1,285.21,342.32Z" style="fill:#BA68C8"></path><path d="M285.21,342.32c1.54-1.17,2.77-.49,4.21,1.7a3.4,3.4,0,0,1-2.21.68A2.36,2.36,0,0,1,285.21,342.32Z" style="opacity:0.1"></path><path d="M288.87,343.77c-.73-.42-2.47-1.52-3.66-1.45l.35-.25S286.57,341.91,288.87,343.77Z" style="opacity:0.2"></path><path d="M275.76,338a2,2,0,0,0-1,.77c-.09.14-.51,1.13-.37,1.25-.58-.46-1.69-1-2.37-.55-.49.35-.84,1.7-.16,2.06-.36-.18-.8-.36-1.12-.14a.76.76,0,0,0,0,1.1,2.23,2.23,0,0,0,1.11.54c-.31-.17-.68.18-.7.52a1.82,1.82,0,0,0,.35,1,1.24,1.24,0,0,1,.2,1,4.43,4.43,0,0,0-1.42-.36,1.42,1.42,0,0,0-1.26.61,1.67,1.67,0,0,1-.34,2.43.88.88,0,0,0,1.37.21,1.3,1.3,0,1,0,1.29,2.26,1.17,1.17,0,0,0,2.18.82c.15.48-.33.91-.79,1.12s-1,.39-1.18.85a1,1,0,0,0,.67,1.22,1.91,1.91,0,0,0,1.49-.18,1,1,0,0,0,1.66,1.06c-.16.22-.43.49-.43.78a1,1,0,0,0,.67.8,2.68,2.68,0,0,0,1.32,0,2.15,2.15,0,0,0-.31,1.55,1.14,1.14,0,0,0,1.15.93.73.73,0,0,0,.4,1.06,1,1,0,0,0,1.13-.49,1.86,1.86,0,0,0,.2-1.29c.31.2.72-.1.81-.45a3.94,3.94,0,0,0-.05-1.08c0-.23,0-.66.27-.8s.75.19,1.09.18c.62,0,1.22-.66,1-1.23a1.05,1.05,0,0,0,1.62.53,1.71,1.71,0,0,0,.5-1.84,5,5,0,0,0-1.05-1.73,1.66,1.66,0,1,0,1-3.14,3.43,3.43,0,0,0,1.27.18,1.08,1.08,0,0,0,.93-.77c.08-.42-.34-.9-.75-.77a2.77,2.77,0,0,0,.79-1.77,1.31,1.31,0,0,0-1.18-1.33,1.48,1.48,0,0,0-.9-2.8,4.05,4.05,0,0,0-.37-2.38,2.58,2.58,0,0,0-1.88-1.4,1.92,1.92,0,0,0-2,1.07,1.72,1.72,0,0,0-1.11-1.42c-.61-.17-1.37.34-1.27,1A2.09,2.09,0,0,0,275.76,338Z" style="fill:#BA68C8"></path><path d="M275.76,338a2,2,0,0,0-1,.77c-.09.14-.51,1.13-.37,1.25-.58-.46-1.69-1-2.37-.55-.49.35-.84,1.7-.16,2.06-.36-.18-.8-.36-1.12-.14a.76.76,0,0,0,0,1.1,2.23,2.23,0,0,0,1.11.54c-.31-.17-.68.18-.7.52a1.82,1.82,0,0,0,.35,1,1.24,1.24,0,0,1,.2,1,4.43,4.43,0,0,0-1.42-.36,1.42,1.42,0,0,0-1.26.61,1.67,1.67,0,0,1-.34,2.43.88.88,0,0,0,1.37.21,1.3,1.3,0,1,0,1.29,2.26,1.17,1.17,0,0,0,2.18.82c.15.48-.33.91-.79,1.12s-1,.39-1.18.85a1,1,0,0,0,.67,1.22,1.91,1.91,0,0,0,1.49-.18,1,1,0,0,0,1.66,1.06c-.16.22-.43.49-.43.78a1,1,0,0,0,.67.8,2.68,2.68,0,0,0,1.32,0,2.15,2.15,0,0,0-.31,1.55,1.14,1.14,0,0,0,1.15.93.73.73,0,0,0,.4,1.06,1,1,0,0,0,1.13-.49,1.86,1.86,0,0,0,.2-1.29c.31.2.72-.1.81-.45a3.94,3.94,0,0,0-.05-1.08c0-.23,0-.66.27-.8s.75.19,1.09.18c.62,0,1.22-.66,1-1.23a1.05,1.05,0,0,0,1.62.53,1.71,1.71,0,0,0,.5-1.84,5,5,0,0,0-1.05-1.73,1.66,1.66,0,1,0,1-3.14,3.43,3.43,0,0,0,1.27.18,1.08,1.08,0,0,0,.93-.77c.08-.42-.34-.9-.75-.77a2.77,2.77,0,0,0,.79-1.77,1.31,1.31,0,0,0-1.18-1.33,1.48,1.48,0,0,0-.9-2.8,4.05,4.05,0,0,0-.37-2.38,2.58,2.58,0,0,0-1.88-1.4,1.92,1.92,0,0,0-2,1.07,1.72,1.72,0,0,0-1.11-1.42c-.61-.17-1.37.34-1.27,1A2.09,2.09,0,0,0,275.76,338Z" style="fill:#fff;opacity:0.5"></path><path d="M281,340c-.36-.15-2.17,0-2.06.74a1.57,1.57,0,0,0-2.46-.8,1.69,1.69,0,0,0-2-1.21,1.65,1.65,0,0,0-1,2.1,1.77,1.77,0,0,0-1.68,3.05,1.6,1.6,0,0,0-.07,3.2,1.83,1.83,0,0,0,1,3.46,1.56,1.56,0,0,0-.32,2.08,1.2,1.2,0,0,0,1.94-.16,1.43,1.43,0,0,0,.77,1.63,1.42,1.42,0,0,0,1.71-.53,1.53,1.53,0,1,0,2.64.33,3.28,3.28,0,0,0,1.38,1.26,1.81,1.81,0,0,0,1.8-.15,1.26,1.26,0,0,0,.28-1.69,1.28,1.28,0,1,0,1.21-2.14,2,2,0,0,0,1.42-1.5,2,2,0,0,0-.77-1.92,1.43,1.43,0,0,0-.9-2.72,2,2,0,0,0,.24-2.58,1.71,1.71,0,0,0-2.51-.08A1.62,1.62,0,0,0,281,340Z" style="fill:#BA68C8"></path><path d="M281,340c-.36-.15-2.17,0-2.06.74a1.57,1.57,0,0,0-2.46-.8,1.69,1.69,0,0,0-2-1.21,1.65,1.65,0,0,0-1,2.1,1.77,1.77,0,0,0-1.68,3.05,1.6,1.6,0,0,0-.07,3.2,1.83,1.83,0,0,0,1,3.46,1.56,1.56,0,0,0-.32,2.08,1.2,1.2,0,0,0,1.94-.16,1.43,1.43,0,0,0,.77,1.63,1.42,1.42,0,0,0,1.71-.53,1.53,1.53,0,1,0,2.64.33,3.28,3.28,0,0,0,1.38,1.26,1.81,1.81,0,0,0,1.8-.15,1.26,1.26,0,0,0,.28-1.69,1.28,1.28,0,1,0,1.21-2.14,2,2,0,0,0,1.42-1.5,2,2,0,0,0-.77-1.92,1.43,1.43,0,0,0-.9-2.72,2,2,0,0,0,.24-2.58,1.71,1.71,0,0,0-2.51-.08A1.62,1.62,0,0,0,281,340Z" style="fill:#fff;opacity:0.65"></path><path d="M273.3,346.37a3.6,3.6,0,0,0,.66.07,3.44,3.44,0,0,0-.94.7,1,1,0,0,0,.67,1.69,3.21,3.21,0,0,0,1.11-.11,1,1,0,0,0,1.33,1.55,1.62,1.62,0,0,0-.13,1.53c.33.51,1.06.48,1.66.4a1.22,1.22,0,0,0,0,1.39c.34.47.8.44,1.32.49a.75.75,0,1,0,.36,1.44,7.1,7.1,0,0,1-.71.63.87.87,0,0,0-.31.83.72.72,0,0,0,1,.36,1.42,1.42,0,0,0,.68-.93.89.89,0,0,0,1-.53c.25-.62-.24-1.05-.77-1.24a1.34,1.34,0,1,0-.63-2.61l-.21-.64a3.92,3.92,0,0,0,1.6,0,1.38,1.38,0,0,0,1.06-1.08c.05-.53-.5-1.09-1-.9a1.1,1.1,0,0,0,1.24-.75.92.92,0,0,0,1.29-.56,1.25,1.25,0,0,0-.65-1.37,2,2,0,0,0-1.59-.06c0-.37-.48-.57-.84-.49s-.68.33-1,.42-.85-.11-.85-.48a3.16,3.16,0,0,0,1.12-1.15,1.24,1.24,0,0,0-.25-1.49c-.43-.33-1.21-.06-1.22.48a1,1,0,0,0-1.69-.78,3,3,0,0,0,.18-1.38,1.14,1.14,0,0,0-.89-1c-.8-.09-.77.74-.73,1.27a1.09,1.09,0,0,0-.83-.37.68.68,0,0,0-.65.57.51.51,0,0,0,.57.56c-.37.26-1,.1-1.23.47a.63.63,0,0,0,.18.8,1.92,1.92,0,0,0,.82.33,2.43,2.43,0,0,0-1,.31.91.91,0,0,0-.47.9.9.9,0,0,0,.58.62Z" style="fill:#BA68C8"></path><path d="M273.3,346.37a3.6,3.6,0,0,0,.66.07,3.44,3.44,0,0,0-.94.7,1,1,0,0,0,.67,1.69,3.21,3.21,0,0,0,1.11-.11,1,1,0,0,0,1.33,1.55,1.62,1.62,0,0,0-.13,1.53c.33.51,1.06.48,1.66.4a1.22,1.22,0,0,0,0,1.39c.34.47.8.44,1.32.49a.75.75,0,1,0,.36,1.44,7.1,7.1,0,0,1-.71.63.87.87,0,0,0-.31.83.72.72,0,0,0,1,.36,1.42,1.42,0,0,0,.68-.93.89.89,0,0,0,1-.53c.25-.62-.24-1.05-.77-1.24a1.34,1.34,0,1,0-.63-2.61l-.21-.64a3.92,3.92,0,0,0,1.6,0,1.38,1.38,0,0,0,1.06-1.08c.05-.53-.5-1.09-1-.9a1.1,1.1,0,0,0,1.24-.75.92.92,0,0,0,1.29-.56,1.25,1.25,0,0,0-.65-1.37,2,2,0,0,0-1.59-.06c0-.37-.48-.57-.84-.49s-.68.33-1,.42-.85-.11-.85-.48a3.16,3.16,0,0,0,1.12-1.15,1.24,1.24,0,0,0-.25-1.49c-.43-.33-1.21-.06-1.22.48a1,1,0,0,0-1.69-.78,3,3,0,0,0,.18-1.38,1.14,1.14,0,0,0-.89-1c-.8-.09-.77.74-.73,1.27a1.09,1.09,0,0,0-.83-.37.68.68,0,0,0-.65.57.51.51,0,0,0,.57.56c-.37.26-1,.1-1.23.47a.63.63,0,0,0,.18.8,1.92,1.92,0,0,0,.82.33,2.43,2.43,0,0,0-1,.31.91.91,0,0,0-.47.9.9.9,0,0,0,.58.62Z" style="fill:#fff;opacity:0.75"></path><g id="freepik--flowers--inject-49"><path d="M277,343.34s-.07-.95-.81-1c0,0-.61-.1-1,.85a2,2,0,0,0-1.76.2,1.1,1.1,0,0,0,.81,1.22,1.39,1.39,0,0,0-.3,1.49s1.52.5,1.89-.44c0,0,.14.84,1.63.84a1.42,1.42,0,0,0,0-1.69s1,0,1.21-.81C278.69,344,278,342.77,277,343.34Z" style="fill:#fff"></path><path d="M276,343.49a.87.87,0,0,0-.9.7s0,.55.76.63.87-.47.87-.47A.88.88,0,0,0,276,343.49Z" style="fill:#f0997a"></path><path d="M282.52,342.07s-.34-.67-.88-.75a1.48,1.48,0,0,0-.54,1,1.4,1.4,0,0,0-1.2.29,1.29,1.29,0,0,0,.76.88,1.72,1.72,0,0,0,0,1.25,1.47,1.47,0,0,0,1.42-.8,1.39,1.39,0,0,0,1.47.38,1.11,1.11,0,0,0-.39-1.28,1.15,1.15,0,0,0,.58-1A1.63,1.63,0,0,0,282.52,342.07Z" style="fill:#fff"></path><path d="M281.9,342.47a.64.64,0,0,0-.58.61s.06.41.63.38.59-.44.59-.44A.65.65,0,0,0,281.9,342.47Z" style="fill:#f0997a"></path><path d="M281.06,352.67s-.23-.48-.61-.53a1.06,1.06,0,0,0-.38.68,1,1,0,0,0-.84.21.87.87,0,0,0,.53.61,1.18,1.18,0,0,0,0,.88,1,1,0,0,0,1-.56s.27.4,1,.26a.76.76,0,0,0-.27-.89.83.83,0,0,0,.41-.72A1.14,1.14,0,0,0,281.06,352.67Z" style="fill:#fff"></path><path d="M280.63,353a.45.45,0,0,0-.41.43s0,.28.44.26.42-.31.42-.31A.45.45,0,0,0,280.63,353Z" style="fill:#f0997a"></path><path d="M276,350.51s-.34-.67-.88-.75a1.48,1.48,0,0,0-.54,1,1.4,1.4,0,0,0-1.2.29,1.29,1.29,0,0,0,.76.88,1.72,1.72,0,0,0,0,1.25,1.49,1.49,0,0,0,1.42-.8,1.39,1.39,0,0,0,1.47.38,1.11,1.11,0,0,0-.39-1.28,1.15,1.15,0,0,0,.58-1A1.63,1.63,0,0,0,276,350.51Z" style="fill:#fff"></path><path d="M275.41,350.91a.67.67,0,0,0-.64.62s.06.4.68.37.64-.45.64-.45A.66.66,0,0,0,275.41,350.91Z" style="fill:#f0997a"></path><path d="M277.91,340.59s-.2-.6-.6-.39-.26.58.09.67c0,0-.74.24-.54.64s.85,0,1-.23c0,0,.13.61.65.39s0-.73,0-.73.79-.31.36-.67S277.91,340.59,277.91,340.59Z" style="fill:#fafafa"></path><path d="M282,349.42s-.21-.6-.6-.4-.26.59.08.67c0,0-.74.24-.53.64s.84,0,1-.22c0,0,.14.6.66.38s0-.73,0-.73.79-.31.36-.67S282,349.42,282,349.42Z" style="fill:#fafafa"></path><path d="M282.73,346.32s.06-.64-.39-.61-.47.42-.2.64c0,0-.77-.08-.74.36s.77.34,1,.2c0,0-.12.61.44.63s.3-.67.3-.67.85.05.61-.46S282.73,346.32,282.73,346.32Z" style="fill:#fafafa"></path><path d="M277.43,348s.06-.64-.38-.61-.48.42-.2.64c0,0-.77-.08-.75.36s.78.34,1,.21c0,0-.13.6.43.62s.3-.67.3-.67.85.05.61-.46S277.43,348,277.43,348Z" style="fill:#fafafa"></path><path d="M271.44,346.94s-.51-.67-.12-.83.55.42.55.42.39-.46.57-.14-.28.68-.28.68.53.28.22.57-.67-.16-.67-.16-.21.51-.54.37S271.05,347.11,271.44,346.94Z" style="fill:#fafafa"></path></g></g><g style="clip-path:url(#freepik--clip-path--inject-49)"><g id="freepik--flowers--inject-49"><path d="M299.39,358.11s.27-.53,1.21-.34a2.24,2.24,0,0,1,1.37.8,2,2,0,0,1-1.89.73C299,359,299.39,358.11,299.39,358.11Z" style="fill:#BA68C8"></path><path d="M299.39,358.11s.27-.53,1.21-.34a2.24,2.24,0,0,1,1.37.8,2,2,0,0,1-1.89.73C299,359,299.39,358.11,299.39,358.11Z" style="opacity:0.1"></path><path d="M300.08,359.3c-.67-.18-.78-.59-.76-.88a3.63,3.63,0,0,1,2.65.15A2,2,0,0,1,300.08,359.3Z" style="opacity:0.1"></path><path d="M298.53,358s-.41-.42.05-1.26a2.24,2.24,0,0,1,1.18-1.06,2,2,0,0,1,.12,2A.85.85,0,0,1,298.53,358Z" style="fill:#BA68C8"></path><path d="M298.53,358s-.41-.42.05-1.26a2.24,2.24,0,0,1,1.18-1.06,2,2,0,0,1,.12,2A.85.85,0,0,1,298.53,358Z" style="opacity:0.1"></path><path d="M299.88,357.66c-.37.58-.79.56-1.06.46a3.63,3.63,0,0,1,.94-2.48A2,2,0,0,1,299.88,357.66Z" style="opacity:0.1"></path><path d="M299,357.88s-.43-1.07-.89-.73.1.93.1.93-.8.13-.55.57,1,.14,1,.14,0,.82.51.66.28-.89.28-.89.74.11.8-.37S299.45,357.54,299,357.88Z" style="fill:#fafafa"></path><path d="M297.13,352.6s.1-1.22,2.05-1.63a4.65,4.65,0,0,1,3.27.42s-.71,2.6-3,2.92S297.13,352.6,297.13,352.6Z" style="fill:#BA68C8"></path><path d="M297.13,352.6s.1-1.22,2.05-1.63a4.65,4.65,0,0,1,3.27.42s-.71,2.6-3,2.92S297.13,352.6,297.13,352.6Z" style="opacity:0.1"></path><path d="M299.42,354.31c-1.42.2-2-.49-2.17-1.05,1.67-1.95,5.2-1.87,5.2-1.87S301.74,354,299.42,354.31Z" style="opacity:0.1"></path><path d="M294.88,351.58s.76-1-.37-2.6a4.76,4.76,0,0,0-2.67-1.93s-1.27,2.38.19,4.21A1.77,1.77,0,0,0,294.88,351.58Z" style="fill:#BA68C8"></path><path d="M294.88,351.58s.76-1-.37-2.6a4.76,4.76,0,0,0-2.67-1.93s-1.27,2.38.19,4.21A1.77,1.77,0,0,0,294.88,351.58Z" style="opacity:0.1"></path><path d="M292,351.26c.91,1.11,1.77,1,2.3.71.13-2.56-2.49-4.92-2.49-4.92S290.57,349.43,292,351.26Z" style="opacity:0.1"></path><path d="M296.29,354.11a2.13,2.13,0,0,1,.4,2.61,5.4,5.4,0,0,1-3,1.8s-1-2,.17-3.54A2.44,2.44,0,0,1,296.29,354.11Z" style="fill:#BA68C8"></path><path d="M296.29,354.11a2.13,2.13,0,0,1,.4,2.61,5.4,5.4,0,0,1-3,1.8s-1-2,.17-3.54A2.44,2.44,0,0,1,296.29,354.11Z" style="opacity:0.1"></path><path d="M296.69,356.72a5.4,5.4,0,0,1-3,1.8c.17-2.19,2.63-4.41,2.63-4.41A2.13,2.13,0,0,1,296.69,356.72Z" style="opacity:0.1"></path><path d="M294.32,351.78s.1-1.28,1.1-1.41c0,0,.83-.13,1.28,1.15a2.63,2.63,0,0,1,2.37.3,1.48,1.48,0,0,1-1.11,1.64,1.87,1.87,0,0,1,.4,2s-2.07.67-2.56-.61c0,0-.19,1.14-2.21,1.12a1.9,1.9,0,0,1,0-2.28s-1.41-.06-1.63-1.12C292,352.58,293,351,294.32,351.78Z" style="fill:#fafafa"></path><path d="M295.55,352a1.4,1.4,0,0,1,1.51,1s0,.74-1.29.84-1.47-.65-1.47-.65A1.26,1.26,0,0,1,295.55,352Z" style="fill:#f0997a"></path><path d="M307.83,357.19s.49-.95,2.19-.64a4.11,4.11,0,0,1,2.5,1.42s-1.43,1.86-3.4,1.35A1.53,1.53,0,0,1,307.83,357.19Z" style="fill:#BA68C8"></path><path d="M307.83,357.19s.49-.95,2.19-.64a4.11,4.11,0,0,1,2.5,1.42s-1.43,1.86-3.4,1.35A1.53,1.53,0,0,1,307.83,357.19Z" style="opacity:0.1"></path><path d="M309.12,359.32c-1.21-.31-1.42-1-1.4-1.56,2-1,4.8.21,4.8.21S311.09,359.83,309.12,359.32Z" style="opacity:0.1"></path><path d="M306.43,358.1a1.74,1.74,0,0,1,.33,2.12,4.38,4.38,0,0,1-2.47,1.46,2.94,2.94,0,0,1,.15-2.87A2,2,0,0,1,306.43,358.1Z" style="fill:#BA68C8"></path><path d="M306.43,358.1a1.74,1.74,0,0,1,.33,2.12,4.38,4.38,0,0,1-2.47,1.46,2.94,2.94,0,0,1,.15-2.87A2,2,0,0,1,306.43,358.1Z" style="opacity:0.1"></path><path d="M306.76,360.22a4.38,4.38,0,0,1-2.47,1.46c.15-1.77,2.14-3.58,2.14-3.58A1.74,1.74,0,0,1,306.76,360.22Z" style="opacity:0.1"></path><path d="M305.75,355.75s.46-.91,1.2-1a2.06,2.06,0,0,1,.72,1.32,1.87,1.87,0,0,1,1.62.41,1.72,1.72,0,0,1-1,1.17,2.33,2.33,0,0,1-.07,1.69,2,2,0,0,1-1.91-1.1,1.87,1.87,0,0,1-2,.5,1.48,1.48,0,0,1,.55-1.72,1.55,1.55,0,0,1-.78-1.39A2.23,2.23,0,0,1,305.75,355.75Z" style="fill:#fafafa"></path><path d="M306.56,356.29a1,1,0,0,1,1,.87s-.09.54-1,.47-1-.64-1-.64A.94.94,0,0,1,306.56,356.29Z" style="fill:#f0997a"></path><path d="M302.44,362.71s.35-.92-.9-1.89A3.79,3.79,0,0,0,299,360a3.3,3.3,0,0,0,1.16,3.17A1.41,1.41,0,0,0,302.44,362.71Z" style="fill:#BA68C8"></path><path d="M302.44,362.71s.35-.92-.9-1.89A3.79,3.79,0,0,0,299,360a3.3,3.3,0,0,0,1.16,3.17A1.41,1.41,0,0,0,302.44,362.71Z" style="opacity:0.1"></path><path d="M300.19,363.14a1.4,1.4,0,0,0,1.93,0c-.52-2-3.09-3.17-3.09-3.17A3.3,3.3,0,0,0,300.19,363.14Z" style="opacity:0.1"></path><path d="M289.06,350.62s-.38-.4.05-1.18a2.09,2.09,0,0,1,1.1-1,1.86,1.86,0,0,1,.1,1.89A.79.79,0,0,1,289.06,350.62Z" style="fill:#BA68C8"></path><path d="M289.06,350.62s-.38-.4.05-1.18a2.09,2.09,0,0,1,1.1-1,1.86,1.86,0,0,1,.1,1.89A.79.79,0,0,1,289.06,350.62Z" style="opacity:0.1"></path><path d="M290.31,350.34a.77.77,0,0,1-1,.42,3.41,3.41,0,0,1,.89-2.31A1.86,1.86,0,0,1,290.31,350.34Z" style="opacity:0.1"></path><path d="M287.91,350.56s.18-.82-1-1.48a3.23,3.23,0,0,0-2.22-.39,2.8,2.8,0,0,0,1.38,2.52A1.21,1.21,0,0,0,287.91,350.56Z" style="fill:#BA68C8"></path><path d="M287.91,350.56s.18-.82-1-1.48a3.23,3.23,0,0,0-2.22-.39,2.8,2.8,0,0,0,1.38,2.52A1.21,1.21,0,0,0,287.91,350.56Z" style="opacity:0.1"></path><path d="M286.07,351.21a1.19,1.19,0,0,0,1.62-.24c-.68-1.62-3-2.28-3-2.28A2.8,2.8,0,0,0,286.07,351.21Z" style="opacity:0.1"></path><path d="M288.93,352.49a1.69,1.69,0,0,1,1,1.83,4.24,4.24,0,0,1-1.76,2.13,2.82,2.82,0,0,1-.81-2.65A1.91,1.91,0,0,1,288.93,352.49Z" style="fill:#BA68C8"></path><path d="M288.93,352.49a1.69,1.69,0,0,1,1,1.83,4.24,4.24,0,0,1-1.76,2.13,2.82,2.82,0,0,1-.81-2.65A1.91,1.91,0,0,1,288.93,352.49Z" style="opacity:0.1"></path><path d="M289.92,354.32a4.24,4.24,0,0,1-1.76,2.13c-.45-1.66.77-4,.77-4A1.69,1.69,0,0,1,289.92,354.32Z" style="opacity:0.1"></path><path d="M289.24,350.58s-.41-.86-1.1-1a1.91,1.91,0,0,0-.69,1.21,1.75,1.75,0,0,0-1.51.36,1.59,1.59,0,0,0,.95,1.11,2.16,2.16,0,0,0,0,1.57,1.86,1.86,0,0,0,1.8-1,1.71,1.71,0,0,0,1.83.49,1.36,1.36,0,0,0-.48-1.6,1.47,1.47,0,0,0,.75-1.28A2,2,0,0,0,289.24,350.58Z" style="fill:#fafafa"></path><path d="M288.48,351.07a1,1,0,0,0-.94.79s.07.51,1,.46.94-.58.94-.58A.86.86,0,0,0,288.48,351.07Z" style="fill:#f0997a"></path><path d="M288.51,346.08s-.06-.59.82-1a2.22,2.22,0,0,1,1.58-.09,2,2,0,0,1-1.17,1.65A.84.84,0,0,1,288.51,346.08Z" style="fill:#BA68C8"></path><path d="M288.51,346.08s-.06-.59.82-1a2.22,2.22,0,0,1,1.58-.09,2,2,0,0,1-1.17,1.65A.84.84,0,0,1,288.51,346.08Z" style="opacity:0.1"></path><path d="M289.74,346.68a.84.84,0,0,1-1.11-.3,3.57,3.57,0,0,1,2.28-1.35A2,2,0,0,1,289.74,346.68Z" style="opacity:0.1"></path><path d="M288.06,345.78s.27-.82.81-.54.36.79-.11.91c0,0,1,.31.73.85s-1.14,0-1.33-.29c0,0-.18.82-.88.53s0-1,0-1-1.07-.41-.49-.9S288.06,345.78,288.06,345.78Z" style="fill:#fafafa"></path><path d="M301.85,355.36s.32-1.1.82-.81,0,.94,0,.94.81.05.6.51-1,.23-1,.23.11.81-.44.71-.37-.87-.37-.87-.73.19-.83-.28S301.36,355.07,301.85,355.36Z" style="fill:#fafafa"></path><path d="M291.65,356.16s.2-.56.57-.36.24.55-.08.63c0,0,.69.23.49.6s-.79,0-.92-.22c0,0-.13.57-.62.36s0-.69,0-.69-.74-.29-.34-.63S291.65,356.16,291.65,356.16Z" style="fill:#fafafa"></path><path d="M295.88,359.42s-.06-.67.41-.64.5.45.2.68c0,0,.82-.08.79.38s-.82.35-1,.21c0,0,.13.64-.46.65s-.31-.71-.31-.71-.89.05-.64-.48S295.88,359.42,295.88,359.42Z" style="fill:#fafafa"></path><path d="M284,352.45s-.08-.86.53-.82.64.58.26.88c0,0,1-.11,1,.49s-1.06.44-1.34.26c0,0,.16.83-.59.84s-.41-.9-.41-.9-1.14.05-.81-.63S284,352.45,284,352.45Z" style="fill:#fafafa"></path></g></g></g></g><g id="freepik--balcony--inject-49"><polygon id="freepik--shadow--inject-49" points="91.57 320.7 221.56 395.74 221.56 372.56 91.57 297.52 91.57 320.7" style="opacity:0.15"></polygon><g id="freepik--door--inject-49"><g id="freepik--door--inject-49"><polygon points="126 221.83 126 317.08 183.53 350.3 183.54 255.06 126 221.83" style="fill:#BA68C8"></polygon><polygon points="126 221.83 126 317.08 183.53 350.3 183.54 255.06 126 221.83" style="opacity:0.25"></polygon><g style="opacity:0.15"><polygon points="126 221.83 130.55 224.47 130.55 314.03 126 317.08 126 221.83"></polygon></g><polygon points="130.55 314.03 124.06 318.19 183.54 352.54 183.53 344.62 130.55 314.03" style="fill:#BA68C8"></polygon><polygon points="130.55 314.03 124.06 318.19 183.54 352.54 183.53 344.62 130.55 314.03" style="fill:#fff;opacity:0.8"></polygon><polygon points="130.55 314.03 183.53 344.62 183.54 255.06 130.55 224.47 130.55 314.03" style="fill:#BA68C8"></polygon><polygon points="130.55 314.04 183.53 344.62 183.55 255.06 130.55 224.47 130.55 314.04" style="fill:#fff;opacity:0.9500000000000001"></polygon><polygon points="130.55 224.47 130.56 233.33 183.55 263.92 183.55 255.06 130.55 224.47" style="opacity:0.1"></polygon><polygon points="152.76 237.28 154.76 238.44 154.76 333.67 152.76 332.53 152.76 237.28" style="fill:#BA68C8"></polygon><g style="opacity:0.2"><polygon points="152.76 237.28 154.76 238.44 154.76 333.67 152.76 332.53 152.76 237.28"></polygon></g><polygon points="154.76 238.44 154.76 333.67 156.76 332.52 156.76 239.58 154.76 238.44" style="fill:#BA68C8"></polygon><g style="opacity:0.4"><polygon points="154.76 238.44 154.76 333.67 156.76 332.52 156.76 239.58 154.76 238.44"></polygon></g></g><g id="freepik--casing--inject-49"><polygon points="126 317.08 124.06 318.19 124.06 220.71 126 221.83 126 317.08" style="fill:#BA68C8"></polygon><polygon points="126 317.08 124.06 318.19 124.06 220.71 126 221.83 126 317.08" style="fill:#fff;opacity:0.4"></polygon><polygon points="126 317.08 124.06 318.19 124.06 220.71 126 221.83 126 317.08" style="opacity:0.1"></polygon><polygon points="124.06 318.19 116.38 313.76 116.38 207.42 191.22 250.63 191.22 356.97 183.54 352.54 183.54 255.06 124.06 220.71 124.06 318.19" style="fill:#BA68C8"></polygon><polygon points="124.06 318.19 116.38 313.76 116.38 207.42 191.22 250.63 191.22 356.97 183.54 352.54 183.54 255.06 124.06 220.71 124.06 318.19" style="fill:#fff;opacity:0.7000000000000001"></polygon><polygon points="116.38 207.42 191.22 250.63 193.13 249.52 118.29 206.32 116.38 207.42" style="fill:#BA68C8"></polygon><polygon points="116.38 207.42 191.22 250.63 193.13 249.52 118.29 206.32 116.38 207.42" style="fill:#fff;opacity:0.85"></polygon><polygon points="191.22 356.97 191.22 250.63 193.13 249.52 193.13 355.87 191.22 356.97" style="fill:#BA68C8"></polygon><polyline points="193.13 249.52 193.13 355.87 191.22 356.97 191.22 250.63" style="fill:#fff;opacity:0.6000000000000001"></polyline></g></g><g id="freepik--floor--inject-49"><polygon points="221.56 372.29 91.57 297.24 42.83 325.38 172.81 400.43 221.56 372.29" style="fill:#fafafa"></polygon><polygon points="221.56 372.29 221.56 376.98 172.81 405.12 172.81 400.43 221.56 372.29" style="fill:#e0e0e0"></polygon><polygon points="172.81 400.43 42.83 325.38 42.83 330.08 172.81 405.12 172.81 400.43" style="fill:#f0f0f0"></polygon></g><g id="freepik--pot--inject-49"><g id="freepik--pot--inject-49"><path d="M202.81,370.62c5.34,3.12,5.34,8.18,0,11.3s-14,3.12-19.36,0-5.34-8.18,0-11.3S197.46,367.5,202.81,370.62Z" style="fill:#e0e0e0"></path><path d="M184.31,379.68c-4.72-4.87-7.5-24.69-2.89-28.55h23.42c4.6,3.86,1.83,23.67-2.88,28.54l-.13.14-.16.16c-.14.13-.28.26-.43.38l-.11.09c-.12.09-.23.19-.36.28s-.4.27-.61.39a15.37,15.37,0,0,1-14.06,0h0a5.81,5.81,0,0,1-.61-.4l-.34-.25-.14-.11-.41-.37-.18-.19Z" style="fill:#455a64"></path><path d="M202.81,349.57c5.34,3.12,5.34,8.18,0,11.3s-14,3.12-19.36,0-5.34-8.18,0-11.3S197.46,346.45,202.81,349.57Z" style="fill:#455a64"></path><g style="opacity:0.1"><path d="M202.81,349.57c5.34,3.12,5.34,8.18,0,11.3s-14,3.12-19.36,0-5.34-8.18,0-11.3S197.46,346.45,202.81,349.57Z" style="fill:#fff"></path></g><path d="M200.24,351.07c3.92,2.29,3.92,6,0,8.3a15.58,15.58,0,0,1-14.22,0c-3.92-2.29-3.92-6,0-8.3A15.58,15.58,0,0,1,200.24,351.07Z" style="fill:#263238"></path><path d="M186,355a15.58,15.58,0,0,1,14.22,0,6.58,6.58,0,0,1,2.35,2.18,6.67,6.67,0,0,1-2.35,2.18,15.58,15.58,0,0,1-14.22,0,6.67,6.67,0,0,1-2.35-2.18A6.58,6.58,0,0,1,186,355Z" style="fill:#f5f5f5"></path></g><g id="freepik--Plants--inject-49"><path d="M206.11,312.68l-9.36,6.4,8.86-3.35a16.15,16.15,0,0,1-1.75,6.8s-5.85,2.85-9,5.84l7.79-2.45a8.7,8.7,0,0,1-.24,4.07c0,.18-.11.37-.17.55-.41,1.24-1,3.6-2,6.4h0a41.23,41.23,0,0,1-3.22,7,28.9,28.9,0,0,1-2.14,3.17l-.15.19c-1.44-1-2.95-1.91-4.51-2.83a48.53,48.53,0,0,1-2.07-12.42c-.68-17.35,13-26.3,23.73-28.87A31.26,31.26,0,0,0,206.11,312.68Z" style="fill:#BA68C8"></path><path d="M206.11,312.68l-9.36,6.4,8.86-3.35a16.15,16.15,0,0,1-1.75,6.8s-5.85,2.85-9,5.84l7.79-2.45a8.7,8.7,0,0,1-.24,4.07c0,.18-.11.37-.17.55-.41,1.24-1,3.6-2,6.4h0a41.23,41.23,0,0,1-3.22,7,28.9,28.9,0,0,1-2.14,3.17l-.15.19c-1.44-1-2.95-1.91-4.51-2.83a48.53,48.53,0,0,1-2.07-12.42c-.68-17.35,13-26.3,23.73-28.87A31.26,31.26,0,0,0,206.11,312.68Z" style="opacity:0.30000000000000004"></path><path d="M198.65,312.87a16.88,16.88,0,0,0-4.15,6.36,34.52,34.52,0,0,0-2.1,7.33,32.31,32.31,0,0,0,.82,15.08h0a.25.25,0,0,1-.47.15h0a32.74,32.74,0,0,1-.59-15.27,36,36,0,0,1,2.23-7.34A17,17,0,0,1,198.65,312.87Z" style="fill:#fafafa"></path><path d="M165.14,323.62h0a133.54,133.54,0,0,1,9.29,13.06l9,1.45-6.65,1.16,3.57,5.66,8.88,1.84-6.93,1.13s1.92,6.76,6.89,9.58c2.74,1.56,4.08,1.8,4.9,1,.57-.55.71-3.8,1.19-6.69a22.07,22.07,0,0,0-2.22-13.29,17.25,17.25,0,0,0-2.84-4.18C183.69,327.05,171.28,323.53,165.14,323.62Z" style="fill:#BA68C8"></path><path d="M165.14,323.62h0a133.54,133.54,0,0,1,9.29,13.06l9,1.45-6.65,1.16,3.57,5.66,8.88,1.84-6.93,1.13s1.92,6.76,6.89,9.58c2.74,1.56,4.08,1.8,4.9,1,.57-.55.71-3.8,1.19-6.69a22.07,22.07,0,0,0-2.22-13.29,17.25,17.25,0,0,0-2.84-4.18C183.69,327.05,171.28,323.53,165.14,323.62Z" style="opacity:0.15"></path><path d="M191.3,341.56h0v0a26.71,26.71,0,0,1,2.07,7.46h0a82,82,0,0,1,.25,9.78,1.52,1.52,0,0,0,.5-.3c.57-.55.71-3.8,1.19-6.69a22.07,22.07,0,0,0-2.22-13.29,17.25,17.25,0,0,0-2.84-4.18c-6.57-7.32-19-10.84-25.12-10.75,9.43,1.54,19.55,7.81,24.56,15.1A19.86,19.86,0,0,1,191.3,341.56Z" style="opacity:0.1"></path><path d="M174.58,326.57a36.85,36.85,0,0,1,12.56,8.67,24.82,24.82,0,0,1,4.29,6.38,23.12,23.12,0,0,1,2,7.41,0,0,0,0,1,0,0l0,0a30.48,30.48,0,0,0-2.37-7.21,27.73,27.73,0,0,0-4.14-6.33,37.63,37.63,0,0,0-12.28-8.88.06.06,0,0,1,0,0S174.57,326.56,174.58,326.57Z" style="fill:#fafafa"></path><path d="M218.9,327.34h0a18.65,18.65,0,0,0-2.27.11,36,36,0,0,0-8.68,2.11c-1,.39-2.08.82-3.1,1.31-.51.25-1,.51-1.52.78a25.12,25.12,0,0,0-6.66,5,15.71,15.71,0,0,0-2.29,3.22l-.24.45h0c-.2.4-.37.79-.53,1.17a21.72,21.72,0,0,0-2,10.69c.09,2.59,1,5.55,1.48,6a.92.92,0,0,0,.22.17c.74.47,1.91.2,4.11-1,4.4-2.46,6.12-8.69,6.12-8.69l-6.11-1,7.85-1.56,3.19-5-5.87-1.06,8-1.23a120.57,120.57,0,0,1,8.28-11.47,0,0,0,0,0,0,0Z" style="fill:#BA68C8"></path><path d="M216.63,327.45a36,36,0,0,0-8.68,2.11c-1,.39-2.08.82-3.1,1.31-.51.25-1,.51-1.52.78a25.12,25.12,0,0,0-6.66,5,15.71,15.71,0,0,0-2.29,3.22l-.24.45h0c-.2.4-.37.79-.53,1.17a21.72,21.72,0,0,0-2,10.69c.09,2.59,1,5.55,1.48,6a.92.92,0,0,0,.22.17,1.54,1.54,0,0,0,.48.18c-.54-4,1.44-14.2,4.43-18.38,3.11-4.36,10.49-10.68,20.63-12.86h0A18.33,18.33,0,0,0,216.63,327.45Z" style="opacity:0.05"></path><path d="M193.81,358.59a34,34,0,0,1,.58-8.88,28.51,28.51,0,0,1,2.94-8.42,24.94,24.94,0,0,1,6-6.66,33.59,33.59,0,0,1,7.65-4.58s0,0,0,0,0,0,0,0a44.1,44.1,0,0,0-7.35,4.93,31.71,31.71,0,0,0-3.23,3,19.53,19.53,0,0,0-2.7,3.46,28.19,28.19,0,0,0-3.05,8.27,34.42,34.42,0,0,0-.77,8.83,0,0,0,0,1,0,0S193.81,358.6,193.81,358.59Z" style="fill:#fafafa"></path></g></g><g id="freepik--railing--inject-49"><polygon points="46.89 285.81 94.41 258.36 94.41 292.94 46.89 320.4 46.89 285.81" style="opacity:0.2"></polygon><path d="M46.76,302.06l47.75-27.6a.41.41,0,0,1,.41,0,1.29,1.29,0,0,1,.59,1,.45.45,0,0,1-.17.38L47.59,303.49Z" style="fill:#455a64"></path><path d="M46.76,284.69,94.51,257.1a.41.41,0,0,1,.41,0,1.28,1.28,0,0,1,.59,1,.42.42,0,0,1-.17.38l-47.75,27.6Z" style="fill:#455a64"></path><path d="M46.76,319.36l47.75-27.59a.41.41,0,0,1,.41,0,1.28,1.28,0,0,1,.59,1,.42.42,0,0,1-.17.38L47.59,320.8Z" style="fill:#455a64"></path></g><g id="freepik--character--inject-49"><g id="freepik--Mat--inject-49"><polygon points="60.21 322.49 129.01 362.21 164.8 341.57 96 301.85 60.21 322.49" style="fill:#BA68C8"></polygon><polygon points="60.21 322.49 60.21 323.12 129.01 362.84 129.01 362.21 60.21 322.49" style="fill:#BA68C8"></polygon><polygon points="60.21 322.49 60.21 323.12 129.01 362.84 129.01 362.21 60.21 322.49" style="opacity:0.30000000000000004"></polygon><polygon points="129.01 362.21 164.8 341.57 164.8 342.2 129.01 362.84 129.01 362.21" style="fill:#BA68C8"></polygon><polygon points="129.01 362.21 164.8 341.57 164.8 342.2 129.01 362.84 129.01 362.21" style="opacity:0.2"></polygon></g><g id="freepik--character--inject-49"><path id="freepik--shadow--inject-49" d="M78.76,328.46c1.48.3,3,.22,4.52.52a17.26,17.26,0,0,1,3,1l2.61,1a19.6,19.6,0,0,1,2.25.88c3.52,1.31,7.09,3.2,11,3a3.45,3.45,0,0,0,2.39-1.17c.86-1,1-2.45,1.66-3.55a4.21,4.21,0,0,1,2.5-1.94,9.18,9.18,0,0,1,4.63.73,11.88,11.88,0,0,1,4.07,2.22A5.91,5.91,0,0,0,121,332.7a14.08,14.08,0,0,1,3.09.53,19.1,19.1,0,0,1,2.77,1.51,7.75,7.75,0,0,0,8.07-.46c.39-.27.79-.68.71-1.15-.18-1.14-2.09-1.37-2.89-1.85-1.46-.86-2.92-1.72-4.4-2.55q-4.41-2.5-8.94-4.83a85.34,85.34,0,0,0-9.9-4.46c-1.67-.61-3.59-1.12-5.19-.34-1.29.63-1.8,1.83-2.64,2.89a9.13,9.13,0,0,1-2.95,2.58,7.63,7.63,0,0,1-3,.59,44.72,44.72,0,0,1-10.06-.87,17.47,17.47,0,0,0-4.25-.47c-1.53.09-4,.48-4.87,2a2,2,0,0,0-.28.74,1.41,1.41,0,0,0,.5,1.16,3,3,0,0,0,1.15.6C78.25,328.35,78.5,328.41,78.76,328.46Z" style="opacity:0.1"></path><g id="freepik--Bottom--inject-49"><path d="M83.34,327.17a4.44,4.44,0,0,1-4,0,4.06,4.06,0,0,1-1.88-4.34c.34-1.93,1.3-3,1.54-4.15s0-2.76.37-3.8a3,3,0,0,1,1.75-1.73,1.83,1.83,0,0,1,1.58.14l.45.27Z" style="fill:#263238"></path><path d="M85.14,319.82,84,323.39s.75,2.55.32,3.22c-.62,1-1.72,1.19-3.58.62a3.67,3.67,0,0,1-2.52-4.06c.15-2.13,2.11-3.73,1.89-5.78a4.71,4.71,0,0,1,.58-3,2.17,2.17,0,0,1,2.67-.83,24,24,0,0,1,3,1c.23.11.48.22.47.49s-.22.79-.15,1a3.14,3.14,0,0,1,.12,1.36,2.14,2.14,0,0,1-.58,1Z" style="fill:#37474f"></path><path d="M84,323.39a5.24,5.24,0,0,0-2.49-.56.38.38,0,0,1-.41-.5h0a.4.4,0,0,1,.34-.27,3.85,3.85,0,0,1,2.81.57A.57.57,0,0,1,84,323.39Z" style="fill:#BA68C8"></path><path d="M84.46,321.82a5.65,5.65,0,0,0-2.53-.75.38.38,0,0,1-.38-.52h0a.37.37,0,0,1,.35-.25,4,4,0,0,1,2.82.76A.59.59,0,0,1,84.46,321.82Z" style="fill:#BA68C8"></path><path d="M84,323.39a5.24,5.24,0,0,0-2.49-.56.38.38,0,0,1-.41-.5h0a.4.4,0,0,1,.34-.27,3.85,3.85,0,0,1,2.81.57A.57.57,0,0,1,84,323.39Z" style="opacity:0.30000000000000004"></path><path d="M84.46,321.82a5.65,5.65,0,0,0-2.53-.75.38.38,0,0,1-.38-.52h0a.37.37,0,0,1,.35-.25,4,4,0,0,1,2.82.76A.59.59,0,0,1,84.46,321.82Z" style="opacity:0.30000000000000004"></path><path d="M122.39,301.47a22.56,22.56,0,0,1,4.6,1.27c1,.5,1.76,1.83,1.34,5.67s-2,12.4-2.14,14.84c-.16,2.22-.23,3-.23,3s-3.59,1.24-4.9.39c0,0-.57-4.12-.8-7.49-.18-2.61-.57-5.18-.49-7.54l-4.58-.51Z" style="fill:#ffa8a7"></path><path d="M119.75,311.66c0-.6.31-3.53,1.67-4.64,0,0-2,.44-2.48,4.57Z" style="fill:#f28f8f"></path><path d="M97.45,317.75c-4.16-1.47-5.91-1.41-11.16-2.84-.53.11-1.49.51-1.94,2.24a3,3,0,0,0,.63,3.14s6.88,3.46,10.91,5.87,6.33,2.74,8.1,1.93c1.26-.58,2.88-2.47,3.31-7.07.09-1,.08-1.89.1-2.88Z" style="fill:#ffa8a7"></path><path d="M97.21,317.32h-.79c-.31,3.68.79,5.08.79,5.08A20.75,20.75,0,0,1,97.21,317.32Z" style="fill:#f28f8f"></path><path d="M119.48,311.71l-11.58-1.4s-.24,5.63-.31,9.35c-1,1.65-9,1.54-11.31-1.24,0,0-.64-5.81-.77-9.05-.29-7.32,0-10.42.18-10.46,2.08-.58,18,.5,18,.5s6.37,1.54,9.93,2.34C122,303.05,118.61,308.42,119.48,311.71Z" style="fill:#455a64"></path><path d="M107.9,310.31l0-1.35a8.44,8.44,0,0,0,4.46-2.62s-.16,2.51-3.46,3.44l4.3,1.18Z" style="fill:#37474f"></path><path d="M135,331.7a1.62,1.62,0,0,1-.07,1.16c-.16.34-1.93,1.34-4.32,1.18a9.86,9.86,0,0,1-4.94-1.73,5.8,5.8,0,0,0-3-.78c-1.18-.07-2.73-.66-3-1.21a2.65,2.65,0,0,1,0-1.51Z" style="fill:#263238"></path><path d="M125.27,324.07a4.92,4.92,0,0,1,1-.14.44.44,0,0,1,.35.09.42.42,0,0,1,.08.22c.09.41.17.82.26,1.24a.67.67,0,0,0,.18.42,3.92,3.92,0,0,0,.37.34,11.08,11.08,0,0,0,1.89,1.22c.78.42,1.55.74,2.35,1.11a20.07,20.07,0,0,1,2.56,1,1.72,1.72,0,0,1,0,2.85,8.44,8.44,0,0,1-5.89.41c-1.38-.39-2.92-1.87-4.74-2-1.16-.09-3.34-.41-4.09-1.29-.27-.39.09-1.62.39-2.69s.32-3.22.7-3.12l.07.54c.14.15.8.38.95.51a2.93,2.93,0,0,1,.64.92.69.69,0,0,0,.33.36c.2.07.34-.05.51-.13a1,1,0,0,1,.69-.05c0-.39-.27-.85,0-1.18a1.42,1.42,0,0,1,.43-.29A6.08,6.08,0,0,1,125.27,324.07Z" style="fill:#37474f"></path><path d="M128.34,326.83a1.06,1.06,0,0,0-.85-.57,3.13,3.13,0,0,0-2,.76.44.44,0,0,0,.07.72h0a.44.44,0,0,0,.49-.06A3.28,3.28,0,0,1,128.34,326.83Z" style="fill:#BA68C8"></path><path d="M130,327.74a1.23,1.23,0,0,0-1-.52,3.85,3.85,0,0,0-2.22.83.42.42,0,0,0,.05.69h0a.42.42,0,0,0,.48-.05A3.32,3.32,0,0,1,130,327.74Z" style="fill:#BA68C8"></path><path d="M131.77,328.57a1.35,1.35,0,0,0-1.05-.48,3.68,3.68,0,0,0-2.13.85.42.42,0,0,0,.06.68h0a.39.39,0,0,0,.47-.05A3.17,3.17,0,0,1,131.77,328.57Z" style="fill:#BA68C8"></path><path d="M128.34,326.83a1.06,1.06,0,0,0-.85-.57,3.13,3.13,0,0,0-2,.76.44.44,0,0,0,.07.72h0a.44.44,0,0,0,.49-.06A3.28,3.28,0,0,1,128.34,326.83Z" style="opacity:0.30000000000000004"></path><path d="M130,327.74a1.23,1.23,0,0,0-1-.52,3.85,3.85,0,0,0-2.22.83.42.42,0,0,0,.05.69h0a.42.42,0,0,0,.48-.05A3.32,3.32,0,0,1,130,327.74Z" style="opacity:0.30000000000000004"></path><path d="M131.77,328.57a1.35,1.35,0,0,0-1.05-.48,3.68,3.68,0,0,0-2.13.85.42.42,0,0,0,.06.68h0a.39.39,0,0,0,.47-.05A3.17,3.17,0,0,1,131.77,328.57Z" style="opacity:0.30000000000000004"></path></g><g id="freepik--Top--inject-49"><path d="M118.8,267.42c-.24.57-2.93,6.69-3.93,9.08-1.3,3.16-2.75,6.61-2.21,9.25-4.54-1.4-5.77-9.64-5.77-9.64,1-.68,1.55-.89,1.91-1.43,1-1.5,1.07-2.34,2-4.35s2.42-5.1,2.42-5.1-.79-9.64-1.44-12a1.83,1.83,0,0,0-.76-1,10.3,10.3,0,0,1-2.12-2.1c-.58-.63-1.08-.8-1-1a1,1,0,0,1,1.25-.42,6.56,6.56,0,0,1,1.41.8,7.92,7.92,0,0,0-1.32-3.06c-1.37-1.75-1.84-3.32,1-3.29,1.78,0,4,1.26,5.27,5.21.36,1.14.65,2.94,1,4.51.8,3.34,1.49,6.29,2.52,10.41A5,5,0,0,1,118.8,267.42Z" style="fill:#ffa8a7"></path><path d="M93.58,283.54l2.76,10.16a62.28,62.28,0,0,0-1,7.3c5,2.33,14.28,3.11,18.38-1.59a165.42,165.42,0,0,0-1-16.67c-.53-3.74-2-5.88-5.17-6.53-2.66-.55-7.56.28-7.56.28l-3.45.92S93.52,282.25,93.58,283.54Z" style="fill:#f5f5f5"></path><path d="M85.46,271.07c1,1.95,7.64,13.67,9.12,16.15,1.64,0,4.75-4.91,3.38-8.82-.45-1.28-1.67-1.76-2.16-2.61s-1.34-2.35-2.12-3.58c-1-1.51-2.05-2.85-2.37-3.62,0,0-1.12-10.45-.55-13a1.91,1.91,0,0,1,.75-1.12,10.82,10.82,0,0,0,2.13-2.32c.57-.69,1.09-.89,1-1.09a1,1,0,0,0-1.35-.38,7.58,7.58,0,0,0-1.44.92,9.64,9.64,0,0,1,1.36-2.74c1.35-1.91,1.34-3-1.64-2.85-1.88.1-3.77,1.44-4.9,5.66a36.22,36.22,0,0,0-.83,4.71c-.41,3.61-.82,8.09-1,11.12A6,6,0,0,0,85.46,271.07Z" style="fill:#ffa8a7"></path><path d="M96.38,262.82a1.41,1.41,0,0,1,.58-.53c.29-.14.69-.41.9-.07a2.39,2.39,0,0,1,.1.85c.12.85.24,1.71.35,2.56a3.13,3.13,0,0,1,.12.82l.84-.76.18,7.1a.92.92,0,0,1-.8-.64c-.32-.79-.49-1.62-.73-2.33s-.65-1.73-.92-2.48a8.22,8.22,0,0,1-1-3.18,2.94,2.94,0,0,1,.19-1.07A1.71,1.71,0,0,1,96.38,262.82Z" style="fill:#263238"></path><path d="M99.07,267.76c-.3.19-.76-.37-1.16-.75a1.33,1.33,0,0,0-2.2.47,2.73,2.73,0,0,0,1.67,3.28,1.23,1.23,0,0,0,1.45-.51l.36,6.89h0c4,5.88,11.66,4.93,5.9-1l-.09-2.25a10.39,10.39,0,0,0,2.25,0,3.06,3.06,0,0,0,2.25-2.59c.5-2.16.64-3.89-.06-8.05-.77-4.57-6.11-4.36-8.91-2.41S99.07,267.76,99.07,267.76Z" style="fill:#ffa8a7"></path><path d="M109.26,262.5a3.88,3.88,0,0,1-2.27,1c-1.67.26-4.33-.77-5.67-.65a3.28,3.28,0,0,1-.35,1.79,2.86,2.86,0,0,1-.61.73,3.54,3.54,0,0,1-.75.44,3.39,3.39,0,0,1,.07,2,.76.76,0,0,1-.3.5c-.44.29-1.15-1-1.47-1.27s-.21-.58-.23-.82a11.7,11.7,0,0,1,0-1.45,3.3,3.3,0,0,0,0-1.13,8.52,8.52,0,0,1-.34-1.41,3.56,3.56,0,0,1,.2-1.8,3.22,3.22,0,0,1,1.41-1.53,4,4,0,0,1,.47-.22,11.92,11.92,0,0,1,2-.42c.7-.13,1.41-.23,2.12-.35a12.44,12.44,0,0,0,4-1.18c.13-.08.3-.15.42-.06.39.3-.36,1.39-.56,1.66a4,4,0,0,0,1.92-.92c.17-.14.4-.31.59-.18s.13.31.1.48a5.88,5.88,0,0,1-1.11,2.42l1.89-1a2.85,2.85,0,0,1-.32,1.8A4.82,4.82,0,0,1,109.26,262.5Z" style="fill:#263238"></path><path d="M105,273.88a21.14,21.14,0,0,1-3.74-.88,3.11,3.11,0,0,1-1.38-1.25,4.16,4.16,0,0,0,.82,1.51c.74.86,4.33,1.35,4.33,1.35Z" style="fill:#f28f8f"></path><path d="M104.24,267.09a.55.55,0,0,1-.52.59.57.57,0,1,1,.52-.59Z" style="fill:#263238"></path><path d="M103.56,265.05l-1.14.7a.69.69,0,0,1,.23-.94A.65.65,0,0,1,103.56,265.05Z" style="fill:#263238"></path><path d="M104.66,270.48l1.8.58a.93.93,0,0,1-1.17.65A1,1,0,0,1,104.66,270.48Z" style="fill:#f28f8f"></path><path d="M109.05,265.25l-1.11-.77a.65.65,0,0,1,.92-.19A.71.71,0,0,1,109.05,265.25Z" style="fill:#263238"></path><path d="M108.79,266.72a.55.55,0,1,1-1.1,0,.55.55,0,0,1,.52-.59A.56.56,0,0,1,108.79,266.72Z" style="fill:#263238"></path><polygon points="105.97 266.33 106.31 269.62 108 268.95 105.97 266.33" style="fill:#f28f8f"></polygon></g></g><path id="freepik--shadow--inject-49" d="M146.36,373.72l1.07-.62a.8.8,0,0,0,0-1.52l-2.38-1.38,8.64-5,2.39,1.38a2.9,2.9,0,0,0,2.63,0l1.07-.62a.8.8,0,0,0,0-1.52l-7.24-4.19a2.92,2.92,0,0,0-2.64,0l-1.07.62a.8.8,0,0,0,0,1.52l2.64,1.53-8.64,5-2.64-1.53a2.9,2.9,0,0,0-2.63,0l-1.08.62a.8.8,0,0,0,0,1.52l7.25,4.19A2.9,2.9,0,0,0,146.36,373.72Z" style="fill:#e0e0e0"></path><g id="freepik--Dumbbell--inject-49"><path d="M150.77,356.32h0a4.35,4.35,0,0,1,5.07-2.79h0a4.19,4.19,0,0,1,1,.41,8.46,8.46,0,0,1,3.82,6.62,4,4,0,0,1-.17,1.21h0a4.34,4.34,0,0,1-5.07,2.79h0a4.25,4.25,0,0,1-1-.42,8.45,8.45,0,0,1-3.82-6.62A4,4,0,0,1,150.77,356.32Z" style="fill:#455a64"></path><path d="M154.42,364.14a8.45,8.45,0,0,1-3.82-6.62c0-2.44,1.71-3.42,3.82-2.21a8.45,8.45,0,0,1,3.82,6.62C158.24,364.37,156.53,365.36,154.42,364.14Z" style="fill:#37474f"></path><path d="M154.42,358c-.81-.47-1.47-.09-1.47.84a3.26,3.26,0,0,0,1.47,2.55c.81.47,1.47.09,1.47-.85A3.24,3.24,0,0,0,154.42,358Z" style="fill:#455a64"></path><path d="M153.92,359.42a1.13,1.13,0,0,0,.5.88.39.39,0,0,0,.34,0l0,0a.38.38,0,0,0,.13-.32,1.11,1.11,0,0,0-.51-.87.34.34,0,0,0-.33,0l0,0A.35.35,0,0,0,153.92,359.42Z" style="fill:#37474f"></path><path d="M145.85,364.08a1.12,1.12,0,0,0,.5.88.49.49,0,0,0,.22.06.24.24,0,0,0,.16,0l8-4.63,0,0a.38.38,0,0,0,.13-.32,1.11,1.11,0,0,0-.51-.87.34.34,0,0,0-.33,0l0,0-8,4.63A.35.35,0,0,0,145.85,364.08Z" style="fill:#fafafa"></path><path d="M138,363.71h0a4.37,4.37,0,0,1,5.07-2.8h0a4.19,4.19,0,0,1,1,.41,8.45,8.45,0,0,1,3.82,6.62,4,4,0,0,1-.17,1.21h0A4.35,4.35,0,0,1,142.6,372h0a4.74,4.74,0,0,1-1-.42,8.45,8.45,0,0,1-3.82-6.62A4,4,0,0,1,138,363.71Z" style="fill:#455a64"></path><path d="M141.62,371.53a8.45,8.45,0,0,1-3.82-6.62c0-2.44,1.71-3.43,3.82-2.21a8.45,8.45,0,0,1,3.82,6.62C145.44,371.76,143.73,372.75,141.62,371.53Z" style="fill:#37474f"></path><path d="M141.62,365.4c-.81-.46-1.47-.08-1.47.85a3.26,3.26,0,0,0,1.47,2.55c.81.47,1.47.09,1.47-.85A3.26,3.26,0,0,0,141.62,365.4Z" style="fill:#455a64"></path><path d="M141.12,366.81a1.1,1.1,0,0,0,.5.87.37.37,0,0,0,.34.05l0,0a.38.38,0,0,0,.12-.32,1.1,1.1,0,0,0-.5-.87.33.33,0,0,0-.34,0l0,0A.35.35,0,0,0,141.12,366.81Z" style="fill:#37474f"></path><path d="M139.9,367.51a1.13,1.13,0,0,0,.5.88.52.52,0,0,0,.22.06.26.26,0,0,0,.17-.05l1.17-.67,0,0a.38.38,0,0,0,.12-.32,1.1,1.1,0,0,0-.5-.87.33.33,0,0,0-.34,0l0,0-1.17.67A.36.36,0,0,0,139.9,367.51Z" style="fill:#fafafa"></path><path d="M139.9,367.51a1.13,1.13,0,0,0,.5.87.37.37,0,0,0,.34.05l0,0a.38.38,0,0,0,.13-.32,1.11,1.11,0,0,0-.51-.87.32.32,0,0,0-.33,0l0,0A.35.35,0,0,0,139.9,367.51Z" style="fill:#e0e0e0"></path></g></g><g id="freepik--railing--inject-49"><polygon points="172.82 358.52 220.34 331.06 220.34 365.65 172.82 393.1 172.82 358.52" style="opacity:0.2"></polygon><path d="M172.81,374.83l47.75-27.59a.41.41,0,0,1,.41,0,1.28,1.28,0,0,1,.59,1,.42.42,0,0,1-.17.38l-47.75,27.6Z" style="fill:#455a64"></path><path d="M172.81,357.47l47.75-27.59a.37.37,0,0,1,.41,0,1.27,1.27,0,0,1,.59,1,.42.42,0,0,1-.17.38L173.64,358.9Z" style="fill:#455a64"></path><path d="M172.81,392.14l47.75-27.59a.39.39,0,0,1,.41,0,1.27,1.27,0,0,1,.59,1,.42.42,0,0,1-.17.38l-47.75,27.59Z" style="fill:#455a64"></path><polygon points="172.82 358.52 46.89 285.81 46.89 320.4 172.82 393.1 172.82 358.52" style="opacity:0.2"></polygon><path d="M45.13,284.77v40.11a.85.85,0,0,0,.52.71,2.73,2.73,0,0,0,2.49,0,.85.85,0,0,0,.51-.71V284.77Z" style="fill:#37474f"></path><path d="M45.65,284.06a.75.75,0,0,0,0,1.43,2.73,2.73,0,0,0,2.49,0,.76.76,0,0,0,0-1.43A2.73,2.73,0,0,0,45.65,284.06Z" style="fill:#455a64"></path><path d="M44.82,282.71a2.07,2.07,0,1,0,2.07-2.07A2.07,2.07,0,0,0,44.82,282.71Z" style="fill:#37474f"></path><path d="M107.27,337,48,302.78a.41.41,0,0,0-.41,0,1.31,1.31,0,0,0-.59,1,.43.43,0,0,0,.18.38l59.23,34.22Z" style="fill:#455a64"></path><path d="M107.27,354.31,48,320.09a.41.41,0,0,0-.41,0,1.31,1.31,0,0,0-.59,1,.4.4,0,0,0,.18.38l59.23,34.23Z" style="fill:#455a64"></path><path d="M106,320.53v39.14a.53.53,0,0,0,.31.44,1.67,1.67,0,0,0,1.54,0,.54.54,0,0,0,.32-.44V320.53Z" style="fill:#37474f"></path><path d="M106.32,320.09a.47.47,0,0,0,0,.89,1.74,1.74,0,0,0,1.54,0,.47.47,0,0,0,0-.89A1.74,1.74,0,0,0,106.32,320.09Z" style="fill:#455a64"></path><path d="M172.82,357.53,48,285.48a.37.37,0,0,0-.41,0,1.3,1.3,0,0,0-.59,1,.4.4,0,0,0,.18.38L172,359Z" style="fill:#455a64"></path><path d="M172.82,374.83,108,337.41a.41.41,0,0,0-.41,0,1.28,1.28,0,0,0-.59,1,.42.42,0,0,0,.17.38L172,376.27Z" style="fill:#455a64"></path><path d="M172.82,392.14,108,354.72a.39.39,0,0,0-.41,0,1.27,1.27,0,0,0-.59,1,.42.42,0,0,0,.17.38L172,393.57Z" style="fill:#455a64"></path><path d="M171.06,357.53v39.54a.88.88,0,0,0,.51.72,2.8,2.8,0,0,0,2.49,0,.88.88,0,0,0,.51-.72V357.53Z" style="fill:#37474f"></path><path d="M171.57,356.81a.75.75,0,0,0,0,1.43,2.73,2.73,0,0,0,2.49,0,.75.75,0,0,0,0-1.43A2.73,2.73,0,0,0,171.57,356.81Z" style="fill:#455a64"></path><path d="M170.75,355.46a2.07,2.07,0,1,0,2.06-2.07A2.07,2.07,0,0,0,170.75,355.46Z" style="fill:#37474f"></path></g></g></g></g></svg>